<svg fill="none" xmlns:xlink="http://www.w3.org/1999/xlink" xmlns="http://www.w3.org/2000/svg" viewBox="21.831411 8.470588235294118 18.267099 39.23219814241486" style="max-height: 500px" width="18.267099" height="39.23219814241486">
	<rect fill-opacity="0" fill="rgb(255,255,255)" y="0.000000" x="0.000000" height="48.000000" width="148.512772" id="Logo"/>
	<path fill-rule="nonzero" fill="rgb(77,54,38)" d="M39.477 28.5962C39.8001 28.6944 39.6555 28.9532 39.6555 29.1514C39.6733 29.7458 39.6555 30.3385 39.6555 30.9365C39.2128 31.0668 39.0396 31.3703 39.0521 31.829C39.0512 32.0485 39.0333 32.2675 38.9986 32.4842C38.8683 33.507 38.2595 33.9962 37.1224 33.9997C36.6012 33.7355 36.0353 33.973 35.5016 33.8569C36.1799 33.782 36.8582 33.6784 37.5384 33.6391C37.7599 33.6321 37.9743 33.5592 38.1543 33.4298C38.3342 33.3004 38.4715 33.1204 38.5487 32.9126C38.6851 32.5373 38.7768 32.1472 38.8219 31.7505C38.879 31.4417 38.8344 31.215 38.4363 31.1275C37.8311 30.9936 37.5437 30.6259 37.5794 29.9404C37.5919 29.6405 37.7686 29.3459 37.6794 29.0764C37.4741 28.4623 37.7722 28.2499 38.2988 28.2249C38.7629 28.2017 38.8968 27.991 38.8469 27.5537C38.7433 26.6611 38.7023 25.7418 38.5666 24.8439C38.497 24.3887 38.2578 24.0638 37.6972 23.9192C36.5708 23.6318 35.4373 23.8228 34.3162 23.6978C34.3162 23.6229 34.3162 23.5461 34.3162 23.4711L36.8939 23.4711C36.1681 22.9339 35.3302 22.5678 34.443 22.4C34.2645 22.3626 34.0252 22.3054 33.9431 22.459C33.7146 22.8874 33.288 23.1034 32.9881 23.4515L30.3104 23.4515C30.1319 23.1034 29.6624 23.0516 29.5357 22.6625C29.4268 22.3251 29.2197 22.3054 28.9841 22.5089C28.8288 22.6357 28.6485 22.6036 28.486 22.6553C27.9041 22.8338 27.2757 22.9374 26.8491 23.4461C26.7569 23.508 26.6504 23.5452 26.5397 23.5539C26.429 23.5627 26.3179 23.5428 26.2172 23.4961C26.0262 23.4122 25.8137 23.4122 25.7619 23.7014L24.7212 23.7335C24.5088 23.7442 24.2428 23.6175 24.1589 23.9549C24.1425 23.9694 24.1232 23.9803 24.1023 23.9868C24.0813 23.9932 24.0593 23.9952 24.0375 23.9924L23.6537 24.0084L23.627 23.9888C24.0482 23.5175 24.6159 23.4176 25.1978 23.4354C25.8396 23.4739 26.4765 23.3036 27.0133 22.9499C27.7131 22.4911 28.5664 22.3608 29.5125 21.9805C28.4128 21.6646 27.6113 21.1826 27.3132 20.1954C27.1347 19.5903 26.924 19.0762 26.4206 18.6102C25.7423 17.9855 25.8566 16.7662 26.5313 16.1682C26.6056 16.1085 26.6617 16.0292 26.6932 15.9393C26.7248 15.8494 26.7305 15.7525 26.7099 15.6594C26.6277 14.5402 26.3635 13.4298 26.8241 12.307C26.924 12.066 26.8384 11.5929 26.5777 11.2859C26.542 10.9557 26.8616 10.7914 26.9348 10.5165C27.9362 9.62397 29.0769 9.36335 30.3836 9.69002C31.2762 9.91316 32.1794 9.9917 33.0791 10.1292C33.8896 10.2541 34.7554 10.3487 35.2855 11.0753C35.6426 11.5662 35.9318 12.0785 36.4584 12.4373C36.7636 12.6462 36.8582 13.0567 36.885 13.4513C36.9192 14.1409 36.8053 14.83 36.5512 15.472C36.428 15.8148 36.4423 16.029 36.7476 16.3235C37.3331 16.8858 37.2188 17.6284 36.9636 18.3157C36.744 18.903 36.3691 19.3868 35.6693 19.3868C35.3587 19.3868 35.3123 19.5135 35.2391 19.7438C35.0695 20.3221 34.7577 20.8486 34.3323 21.2754C34.1859 21.4218 33.8574 21.4736 33.9289 21.7288C34.0003 21.9841 34.3073 22.0127 34.5376 22.0752C35.3778 22.2867 36.1899 22.5977 36.9564 23.0016C37.267 23.1694 37.4223 23.5229 37.8204 23.5907C38.5059 23.7068 38.7987 24.1887 38.904 24.8403C39.0294 25.7873 39.0944 26.7413 39.0985 27.6965C39.111 28.0732 39.2414 28.2427 39.5448 28.3588C39.5216 28.4302 39.4966 28.5034 39.4716 28.5765C39.1023 28.416 38.6964 28.3586 38.297 28.4105C38.2061 28.4105 38.1189 28.4467 38.0547 28.5109C37.9904 28.5752 37.9543 28.6624 37.9543 28.7533C37.9543 28.9853 38.1078 29.0478 38.3113 29.0585C38.534 29.0575 38.7565 29.0718 38.9772 29.1014C39.4038 29.1906 39.543 29.005 39.477 28.5962ZM27.8987 12.2302C27.9416 12.5355 28.1183 12.5141 28.3486 12.4409C28.2504 12.191 28.0594 12.2445 27.8987 12.2302C27.8523 11.7215 28.0201 11.6947 28.3932 11.9857C28.9555 12.4212 29.5482 12.5337 29.9641 12.3249C28.702 11.7161 28.702 11.7161 28.7627 11.2823C29.982 12.0178 31.2797 12.398 32.7061 12.2356C32.973 12.2204 33.2406 12.2204 33.5076 12.2356C34.7179 12.2356 35.1142 12.6462 35.1142 13.869C35.1142 14.492 35.1017 15.1186 35.132 15.738C35.1427 15.9594 35.3926 16.3681 35.5033 16.1611C35.6908 15.8165 36.071 15.7648 36.2174 15.4702C36.6119 14.6955 36.4387 13.8529 36.428 13.0407C36.428 12.5373 35.9068 12.4391 35.5587 12.2231C35.4811 12.185 35.4183 12.1222 35.3802 12.0446C34.9392 10.5736 33.6057 10.5808 32.4758 10.4023C31.5386 10.2541 30.596 10.1309 29.6749 9.91138C28.5699 9.64896 27.3543 10.3023 27.0954 11.3984C27.0599 11.5629 27.0661 11.7337 27.1135 11.8952C27.1609 12.0567 27.248 12.2038 27.3668 12.3231C27.606 12.5658 27.7113 12.1588 27.8987 12.2302ZM34.8375 13.4798C34.9196 13.08 34.6447 12.7872 34.1502 12.6462C33.6793 12.5071 33.1829 12.4778 32.6989 12.5605C31.2708 12.8015 29.8427 13.0193 28.3986 12.9889C27.7666 12.9746 27.631 13.1406 27.5595 13.6494C27.2953 15.5238 27.242 17.4219 27.4007 19.3082C27.4935 20.4096 28.0987 21.2004 29.1983 21.57C29.8513 21.7945 30.5329 21.9256 31.2226 21.9591C33.1523 22.0448 34.4358 21.2272 34.9571 19.5974C35.0838 19.2029 35.1106 18.7727 35.7211 19.0619C35.8247 19.1137 36.0567 18.969 36.1959 18.8691C36.6601 18.5317 36.9796 17.541 36.7975 16.9894C36.7083 16.7198 36.6065 16.4306 36.2727 16.3503C35.9389 16.27 35.7372 16.4842 35.5587 16.718C35.4676 16.8341 35.4176 17.0411 35.2266 16.9876C35.0356 16.934 35.0481 16.7412 35.0213 16.6002C34.8339 15.6237 34.6697 14.6366 34.8375 13.4816L34.8375 13.4798ZM29.7785 22.0948C29.8297 22.4054 29.9803 22.691 30.2075 22.9088C30.4347 23.1267 30.7263 23.2651 31.0388 23.3033C32.1705 23.4104 33.3933 22.9284 33.5915 22.2965C33.6325 22.1698 33.6718 22.0305 33.5611 21.9216C33.4504 21.8128 33.3594 21.902 33.2541 21.9216C32.8522 22.0452 32.444 22.1471 32.0313 22.2269C31.2797 22.3483 30.5336 22.1805 29.7785 22.0948ZM26.9223 18.6781C27.0562 18.4889 26.9883 18.3318 27.0097 18.189C27.0794 17.7248 26.6242 17.2482 27.0579 16.7805C27.0761 16.7459 27.0872 16.708 27.0905 16.669C27.0939 16.6301 27.0894 16.5909 27.0775 16.5536C27.0655 16.5164 27.0463 16.4819 27.0208 16.4522C26.9954 16.4225 26.9643 16.3982 26.9294 16.3806C26.7295 16.2878 26.6009 16.4449 26.4885 16.5752C26.0797 17.0643 26.2671 18.0408 26.9223 18.6781ZM38.6023 29.312C38.3238 29.3602 37.9079 29.1853 37.8615 29.5762C37.8079 30.0207 38.2845 29.8119 38.5059 29.9332C38.5267 29.9423 38.5494 29.9459 38.5719 29.9439C38.8826 29.91 39.4038 30.2456 39.4341 29.7065C39.4663 29.2567 38.9272 29.3638 38.6094 29.3209L38.6023 29.312ZM27.0901 15.4595C27.0901 15.0132 27.0669 14.733 27.0901 14.4598C27.1293 14.0743 26.949 13.6601 27.2239 13.3049C27.3435 13.1496 27.5221 13.0085 27.4025 12.7854C27.3767 12.7525 27.3431 12.7264 27.3048 12.7096C27.2665 12.6928 27.2246 12.6857 27.1829 12.689C27.0775 12.7318 26.9881 12.8064 26.927 12.9024C26.8659 12.9983 26.8362 13.1109 26.8419 13.2245C26.8312 13.9118 26.7223 14.6223 27.1008 15.4595L27.0901 15.4595ZM38.8861 30.8419C39.1378 30.8419 39.411 30.7972 39.3396 30.5509C39.1932 30.0457 38.6683 30.2778 38.3256 30.1421C38.1667 30.0778 37.9097 30.1421 37.9561 30.3795C38.0721 30.9276 38.5934 30.7151 38.8933 30.8419L38.8861 30.8419Z" id="Vector"/>
	<path fill-rule="nonzero" fill="rgb(42,42,42)" d="M35.5069 33.8477C36.0424 33.9637 36.6065 33.7263 37.1278 33.9905C35.7229 34.169 35.7264 34.169 35.6854 35.6292C35.6675 36.2451 35.639 36.8609 35.614 37.4768C35.4194 37.9588 35.5176 38.4586 35.5301 38.9513C35.4789 40.4127 35.4259 41.8753 35.3712 43.3391C35.3712 43.448 35.3605 43.5623 35.2355 43.6158C35.157 43.7461 35.0784 43.8764 34.9981 44.005L34.8642 43.8764C34.1652 43.6613 33.4166 43.6688 32.7221 43.8979C32.7114 44.1139 32.6989 44.3299 32.6882 44.5477C32.4347 44.3424 32.7471 43.9425 32.4168 43.764C32.1044 43.5444 32.2044 43.2035 32.1794 42.9089C31.9937 40.6954 31.8152 38.4818 31.6439 36.2683C31.6314 36.1166 31.6242 35.9702 31.41 35.9702C31.2303 38.3694 31.0518 40.7638 30.8745 43.1535C30.8584 43.3623 30.9477 43.6123 30.696 43.7497L30.3211 43.7622L27.9058 43.7622C27.8189 43.6787 27.7504 43.5779 27.7049 43.4663C27.6594 43.3546 27.6378 43.2347 27.6416 43.1142C27.5613 40.8775 27.4774 38.6514 27.3649 36.4075C27.3292 35.7292 27.1864 35.0544 27.2418 34.3689C27.2561 34.1743 27.1472 34.0922 26.9883 34.0387C27.1275 33.7727 27.3774 33.8887 27.5774 33.8852C28.7627 33.8691 29.948 33.8673 31.1315 33.8619L35.5069 33.8477ZM29.3607 34.6635C29.0498 34.684 28.738 34.684 28.4271 34.6635C27.7827 34.5796 27.6238 34.8313 27.6095 35.4703C27.5613 37.816 28.0058 40.1366 27.9112 42.4823C27.8755 43.3498 27.9969 43.4569 28.852 43.6033C29.9605 43.7961 30.4336 43.4891 30.6157 42.5733C30.6728 42.2805 30.6157 42.0128 30.6371 41.729C30.8156 39.9724 31.0101 38.2123 31.0905 36.4486C31.1708 34.6849 31.1155 34.6635 29.3607 34.6635ZM35.3926 36.2308C35.3926 35.897 35.3694 35.5614 35.3926 35.2293C35.4301 34.792 35.2587 34.642 34.8214 34.6563C33.9538 34.6813 33.0862 34.6706 32.2169 34.6563C31.8599 34.6563 31.7528 34.7866 31.8099 35.1437C31.9169 35.7532 31.9902 36.3683 32.0294 36.9859C32.1348 38.9495 32.4293 40.9132 32.4507 42.8768C32.4507 43.2659 32.6114 43.4534 33.0452 43.5069C33.5807 43.5748 34.0984 43.4926 34.6232 43.4873C35.0017 43.4873 35.1231 43.2856 35.1141 42.9339C35.0624 40.6972 35.2819 38.4657 35.3926 36.2308Z" id="Vector"/>
	<path fill-rule="nonzero" fill="rgb(77,54,38)" d="M31.1162 33.8525C29.9327 33.8525 28.7474 33.8525 27.562 33.8757C27.3621 33.8757 27.1122 33.7632 26.973 34.0292C26.1993 34.0925 25.421 34.0697 24.6523 33.9614C23.5973 33.8275 23.1492 33.267 23.0743 32.1602C23.0475 31.7443 23.0743 31.3837 22.6619 31.0088C22.3656 30.7357 22.3049 30.0681 22.3602 29.5522C22.4155 29.0363 22.1817 28.3668 22.9761 28.1419C23.0296 28.1276 23.0171 27.8563 23.0243 27.7028C23.0564 26.7745 23.0118 25.8391 23.2028 24.9216C23.2742 24.5842 23.2992 24.2182 23.6152 23.9844L23.6401 24.004L23.7365 24.2289C23.3313 25.2697 23.3385 26.3586 23.3456 27.4421C23.3456 27.8527 23.2421 28.3347 23.9347 28.2472C24.0882 28.2294 24.1632 28.3704 24.2203 28.49C24.5363 29.1398 24.4274 29.8378 24.3988 30.5126C24.3792 30.9499 23.924 31.0481 23.5759 31.1766C23.4971 31.2053 23.4295 31.2585 23.3831 31.3283C22.9814 32.1084 23.7901 33.549 24.663 33.6008C25.5716 33.6544 26.4803 33.6722 27.3871 33.7329C28.6331 33.8239 29.8791 33.6597 31.1162 33.8525ZM23.5313 29.3094C23.1742 29.3522 22.5976 29.3094 22.653 29.8021C22.703 30.2626 23.2385 29.9163 23.5563 29.9592C23.5781 29.9627 23.6004 29.9627 23.6223 29.9592C23.8472 29.9181 24.1775 29.9842 24.1685 29.6378C24.1596 29.2451 23.8169 29.3308 23.5313 29.3094ZM23.201 30.916C23.4813 30.7678 23.9972 30.9446 24.1257 30.4215C24.1362 30.3826 24.1352 30.3414 24.1227 30.3031C24.1102 30.2648 24.0868 30.2309 24.0553 30.2057C24.0239 30.1805 23.9857 30.165 23.9456 30.1612C23.9054 30.1573 23.8651 30.1653 23.8294 30.1841C23.4724 30.3322 22.9154 30.0752 22.7815 30.65C22.7333 30.8535 22.9457 30.9267 23.201 30.9071L23.201 30.916ZM23.0403 29.1309C23.2974 28.9006 23.8794 29.3486 24.0025 28.8024C24.0846 28.4454 23.6758 28.4454 23.4313 28.465C23.1278 28.49 22.7173 28.4008 22.6476 28.8702C22.6173 29.0809 22.7815 29.163 23.0403 29.1202L23.0403 29.1309Z" id="Vector"/>
	<path fill-rule="nonzero" fill="rgb(77,54,38)" d="M36.6683 45.0996C37.1413 45.9583 36.9111 46.5188 35.9542 46.6527C34.6154 46.8312 33.514 46.2439 32.5001 45.4495C32.2876 45.2853 32.4108 45.0353 32.3555 44.8318L32.3983 44.5462C32.409 44.3677 32.4179 44.1892 32.4286 44.0107L32.4286 43.7536C32.7589 43.9321 32.4465 44.332 32.7 44.5373C32.8517 44.6908 32.4572 45.1121 32.9695 45.0925C33.1605 45.4316 33.5479 45.5102 33.83 45.7315C33.7621 45.7548 33.6015 45.794 33.6693 45.8333C34.3012 46.201 34.96 46.5116 35.724 46.4045C36.1828 46.3385 36.5434 46.1707 36.4612 45.603C36.1524 44.5998 35.333 44.4713 34.5208 44.5016C34.4655 44.0857 35.117 44.5605 34.9814 44.0268L35.0064 43.9946C35.0867 43.8661 35.1652 43.7358 35.2438 43.6055C35.0653 43.9089 35.3259 44.0375 35.4991 44.1785C35.8757 44.4962 36.2738 44.7961 36.6683 45.0996Z" id="Vector"/>
	<path fill-rule="nonzero" fill="rgb(186,33,36)" d="M121.922 47.0783C121.697 46.8837 121.793 46.6213 121.793 46.3892C121.793 39.795 121.793 33.2002 121.793 26.6048C121.793 26.3602 121.663 26.0692 121.949 25.8711C121.949 32.7628 121.949 39.6552 121.949 46.5481C121.956 46.7248 121.934 46.9015 121.922 47.0783Z" id="Vector"/>
	<path fill-rule="nonzero" fill="rgb(94,58,25)" d="M26.2891 45.3337C26.3248 45.248 26.3623 45.1552 26.3997 45.0785L26.4212 45.057L26.5283 44.9464L26.555 44.916L26.6622 44.8107L26.6925 44.7875L26.8014 44.6857C27.1816 44.3965 27.6458 44.2038 27.8903 43.7539L30.3056 43.7539C30.3056 43.8414 30.3056 43.9324 30.3056 44.0163C29.6147 44.0342 28.9132 43.9342 28.117 44.0538C28.4044 44.3501 28.7311 44.2145 28.8596 44.5037C28.5258 44.5037 28.2045 44.4894 27.8868 44.5037C27.2209 44.5394 26.6907 45.1713 26.8282 45.7533C26.7443 46.0478 27.062 46.1674 27.1084 46.4048L26.5426 46.4405C26.5343 46.0582 26.448 45.6815 26.2891 45.3337Z" id="Vector"/>
	<path fill-rule="nonzero" fill="rgb(156,49,48)" d="M87.8376 47.033L87.8376 41.5937C87.8376 41.3599 87.9108 41.076 87.5234 41.0725C87.9287 41.0243 88.0161 40.8422 87.9929 40.412C87.9412 39.3677 87.8144 38.3127 88.0875 37.2773L88.0768 40.9815C87.7609 41.1475 87.8983 41.442 87.8876 41.6955C87.8608 43.4699 87.8501 45.2514 87.8376 47.033Z" id="Vector"/>
	<path fill-rule="nonzero" fill="rgb(186,33,36)" d="M80.3359 47.4961L85.5949 47.4961C83.8419 47.7442 82.0836 47.8317 80.3359 47.4961Z" id="Vector"/>
	<path fill-rule="nonzero" fill="rgb(156,49,48)" d="M142.279 2.80812C141.112 2.97413 139.939 2.85989 138.77 2.87774C137.684 2.8938 136.599 2.86167 135.514 2.85096C135.598 2.70815 135.739 2.73671 135.871 2.73671C137.902 2.73671 139.935 2.73671 141.969 2.73671C142.075 2.74832 142.179 2.77229 142.279 2.80812Z" id="Vector"/>
	<path fill-rule="nonzero" fill="rgb(156,49,48)" d="M115.123 47.2292L121.885 47.1953C121.821 47.3917 121.653 47.3738 121.501 47.3738C119.484 47.3738 117.467 47.3738 115.45 47.3738C115.328 47.3685 115.175 47.4042 115.123 47.2292Z" id="Vector"/>
	<path fill-rule="nonzero" fill="rgb(156,49,48)" d="M105.08 47.1986C107.044 47.1986 109.023 47.1986 110.992 47.2539C111.107 47.2539 111.423 46.7701 111.464 47.3253C109.441 47.3384 107.417 47.3497 105.394 47.3592C105.276 47.361 105.126 47.3735 105.08 47.1986Z" id="Vector"/>
	<path fill-rule="nonzero" fill="rgb(186,33,36)" d="M121.714 13.8165L115.121 13.8469C115.166 13.6202 115.351 13.6684 115.494 13.6684C117.429 13.6684 119.366 13.6684 121.303 13.6684C121.446 13.6701 121.614 13.6434 121.714 13.8165Z" id="Vector"/>
	<path fill-rule="nonzero" fill="rgb(156,49,48)" d="M131.025 19.4403C131.025 17.5279 131.025 15.6154 131.025 13.703C131.045 13.6928 131.066 13.6875 131.088 13.6875C131.11 13.6875 131.131 13.6928 131.15 13.703C131.15 13.7476 131.161 13.7922 131.168 13.8369L131.168 19.4189L131.104 19.4386L131.025 19.4403Z" id="Vector"/>
	<path fill-rule="nonzero" fill="rgb(196,56,26)" d="M148.419 41.1059L148.419 46.4184L148.28 46.4184C148.28 44.8672 148.28 43.3177 148.28 41.7664C148.28 41.5361 148.378 41.2701 148.137 41.0845C148.233 41.0131 148.337 40.9274 148.419 41.1059Z" id="Vector"/>
	<path fill-rule="nonzero" fill="rgb(186,33,36)" d="M131.162 13.8382C131.162 13.7936 131.15 13.749 131.145 13.7043L135.407 13.6758C135.263 13.9346 135.013 13.8257 134.811 13.8293C133.594 13.8418 132.378 13.8364 131.162 13.8382Z" id="Vector"/>
	<path fill-rule="nonzero" fill="rgb(186,33,36)" d="M70.4355 13.7031L74.5074 13.7031L74.6752 13.7317C74.2396 13.9727 73.7701 13.8281 73.3185 13.8388C72.3653 13.8638 71.4102 13.8388 70.4623 13.8388L70.4355 13.7031Z" id="Vector"/>
	<path fill-rule="nonzero" fill="rgb(57,77,81)" d="M35.5299 38.9511C35.5174 38.4584 35.4193 37.9585 35.6138 37.4766C35.5853 37.9693 35.5585 38.4602 35.5299 38.9511Z" id="Vector"/>
	<path fill-rule="nonzero" fill="rgb(186,33,36)" d="M142.143 38.7557L142.143 19.6211L142.205 19.6211L142.205 38.7825L142.143 38.7557Z" id="Vector"/>
	<path fill-rule="nonzero" fill="rgb(186,33,36)" d="M142.143 13.2562L142.143 3.85938L142.205 3.85938L142.205 13.2848L142.143 13.2562Z" id="Vector"/>
	<path fill-rule="nonzero" fill="rgb(186,33,36)" d="M148.4 13.7567C147.523 13.9352 146.636 13.812 145.754 13.8299C144.674 13.8652 143.593 13.8229 142.52 13.7031L148.296 13.7031L148.4 13.7567Z" id="Vector"/>
	<path fill-rule="nonzero" fill="rgb(156,49,48)" d="M74.6756 13.7204L74.5078 13.6919C74.9666 13.6919 74.8791 13.3634 74.8791 13.0796C74.8791 9.85208 74.8916 6.62638 74.8648 3.40067C74.8648 2.86514 75.0023 2.72411 75.5307 2.73304C77.4229 2.76517 79.3169 2.73304 81.2109 2.75089C81.3609 2.75089 81.5787 2.62057 81.6608 2.88477C79.6775 2.88477 77.6942 2.91512 75.7128 2.86871C75.0594 2.85264 74.9505 3.08827 74.9541 3.66487C74.9773 6.80131 74.9541 9.93776 74.9648 13.0742C74.9648 13.333 75.0505 13.6276 74.6756 13.7204Z" id="Vector"/>
	<path fill-rule="nonzero" fill="rgb(186,33,36)" d="M81.7109 13.6133C83.5389 13.7382 85.3686 13.6293 87.1984 13.6775C87.4019 13.6775 87.6929 13.499 87.8142 13.8561C85.9827 13.8561 84.153 13.8453 82.3214 13.8275C82.109 13.8239 81.8163 13.9703 81.7109 13.6133Z" id="Vector"/>
	<path fill-rule="nonzero" fill="rgb(186,33,36)" d="M130.748 14.6445L130.748 18.6378C130.482 17.7042 130.676 16.751 130.643 15.8066C130.623 15.4246 130.487 15.0087 130.748 14.6445Z" id="Vector"/>
	<path fill-rule="nonzero" fill="rgb(229,38,33)" d="M31.1168 33.8562C29.8797 33.6634 28.6337 33.8276 27.3912 33.7437C26.4844 33.683 25.5758 33.6652 24.6671 33.6116C23.7942 33.5599 22.9855 32.1193 23.3872 31.3392C23.4336 31.2693 23.5012 31.2161 23.58 31.1874C23.937 31.05 24.3833 30.9607 24.4029 30.5234C24.4351 29.8486 24.544 29.1506 24.2244 28.5009C24.1673 28.3813 24.0923 28.2402 23.9388 28.2581C23.2462 28.3438 23.3515 27.8636 23.3497 27.453C23.3497 26.3623 23.3354 25.2734 23.7407 24.2398C23.896 24.2398 23.9317 24.0773 24.0299 23.9988C24.0516 24.0016 24.0737 23.9997 24.0946 23.9932C24.1155 23.9867 24.1348 23.9758 24.1512 23.9613C24.3637 23.9524 24.5939 23.9845 24.7135 23.7399L25.7543 23.7078L34.3228 23.6953C35.4439 23.8203 36.5774 23.6293 37.7038 23.9167C38.2644 24.0613 38.5036 24.3862 38.5732 24.8414C38.7089 25.7339 38.7517 26.6497 38.8534 27.5512C38.9034 27.9885 38.7696 28.1992 38.3054 28.2224C37.7699 28.2474 37.4807 28.4598 37.686 29.0739C37.7752 29.3434 37.5985 29.638 37.586 29.9379C37.5539 30.6233 37.8377 30.9911 38.4429 31.125C38.841 31.2124 38.8856 31.4391 38.8284 31.748C38.7833 32.1447 38.6917 32.5348 38.5553 32.9101C38.4781 33.1179 38.3408 33.2979 38.1609 33.4273C37.9809 33.5567 37.7665 33.6296 37.545 33.6366C36.8648 33.6706 36.1865 33.7794 35.5081 33.8544L31.1168 33.8562ZM29.1531 28.7026L29.1371 28.7026C29.1371 29.3452 29.1174 29.9878 29.1371 30.6305C29.1585 31.166 29.4209 31.3445 29.8654 31.0482C30.9008 30.3752 32.0289 29.8575 33.0161 29.106C33.4303 28.7918 33.3428 28.5705 32.9501 28.3777C31.8264 27.8069 30.733 27.1783 29.6744 26.4944C29.2977 26.257 29.1496 26.3623 29.1389 26.7746C29.146 27.4173 29.1478 28.0599 29.1478 28.7026L29.1531 28.7026Z" id="Vector"/>
	<path fill-rule="nonzero" fill="rgb(242,188,129)" d="M34.8379 13.4815C34.6701 14.6365 34.8379 15.6237 35.0164 16.6091C35.0432 16.7501 35.0521 16.95 35.2217 16.9964C35.3913 17.0428 35.4627 16.8429 35.5538 16.7269C35.7323 16.493 35.9322 16.277 36.2678 16.3591C36.6034 16.4413 36.7034 16.7286 36.7926 16.9982C36.9711 17.5498 36.6552 18.5405 36.1911 18.8779C36.0518 18.9779 35.8197 19.1225 35.7162 19.0707C35.1057 18.7744 35.0789 19.2046 34.9522 19.6063C34.4327 21.2361 33.1474 22.0537 31.2177 21.968C30.528 21.9344 29.8464 21.8034 29.1934 21.5788C28.0938 21.2093 27.4886 20.4185 27.3958 19.3171C27.2371 17.4308 27.2904 15.5327 27.5547 13.6583C27.6261 13.1495 27.7617 12.9835 28.3937 12.9978C29.8217 13.0281 31.2713 12.8193 32.694 12.5693C33.178 12.4866 33.6744 12.516 34.1453 12.655C34.6451 12.7889 34.92 13.0763 34.8379 13.4815ZM35.9215 18.3656C36.3535 17.9854 36.0125 17.4963 36.1714 17.0428C35.5948 17.1499 35.6466 17.5409 35.6359 17.8997C36.2143 17.7712 35.8144 18.2174 35.9161 18.371L35.9037 18.3852L35.9215 18.3656ZM28.7078 15.5005C28.1277 15.6522 27.9599 16.0057 28.133 16.7072C28.133 16.7733 28.1491 16.8393 28.1509 16.9054C28.1777 17.4838 28.4865 17.7497 29.0577 17.7122C29.6289 17.6748 29.8003 17.3552 29.795 16.8197C29.795 16.4769 29.795 16.1056 29.5915 15.8664C29.388 15.6272 29.2719 14.94 28.7078 15.5005ZM32.6958 15.6058C32.0424 15.6058 31.8996 15.8093 31.8854 16.7358C31.8854 17.257 31.8853 17.7426 32.6137 17.7176C33.267 17.6944 33.6098 17.2606 33.6133 16.4234C33.6205 16.0217 33.1581 15.6094 32.6994 15.6058L32.6958 15.6058ZM33.1189 18.9583C31.8693 19.8347 30.6625 20.0668 29.3844 19.3938C29.2844 19.3403 29.163 19.2796 29.1113 19.4242C29.0595 19.5688 29.1934 19.6598 29.313 19.7169C30.3841 20.2275 31.4676 20.1775 32.5262 19.6812C32.7672 19.5706 33.0546 19.4474 33.1224 18.9672L33.1189 18.9583ZM31.5783 18.4352C31.1463 18.5191 30.8643 18.5959 30.559 18.6298C30.3127 18.6584 30.0467 18.6405 29.9271 18.371C29.8075 18.1014 29.9824 17.9443 30.1591 17.7997C30.6947 17.3731 30.6197 16.8143 30.5019 16.236C30.3412 16.7519 30.3376 17.3285 29.845 17.7033C29.7199 17.7824 29.6283 17.9046 29.5875 18.0468C29.5467 18.189 29.5596 18.3412 29.6236 18.4745C29.6897 18.6042 29.7908 18.7129 29.9154 18.7883C30.04 18.8636 30.1831 18.9027 30.3287 18.9011C30.5594 18.9214 30.7917 18.8897 31.0085 18.8085C31.2254 18.7272 31.4213 18.5985 31.5819 18.4317L31.5783 18.4352ZM32.6797 13.8564C32.5798 13.8688 32.4808 13.8879 32.3834 13.9135C32.1531 13.9831 31.8479 14.0313 31.9175 14.3527C31.9871 14.674 32.2745 14.5151 32.4726 14.5133C32.7124 14.4975 32.9531 14.518 33.1867 14.574C33.3938 14.6365 33.5812 15.0614 33.7704 14.7722C33.9596 14.483 33.5437 14.308 33.3706 14.1081C33.1974 13.9082 32.9528 13.8975 32.6833 13.8564L32.6797 13.8564ZM29.2023 14.549C29.3808 14.549 29.7057 14.715 29.7379 14.3419C29.77 13.9689 29.4487 13.9707 29.1845 13.935C28.6007 13.8528 28.2276 14.1688 27.9135 14.5954C27.851 14.6829 27.7921 14.7972 27.892 14.8918C27.992 14.9864 28.108 14.9239 28.1884 14.8543C28.3201 14.7241 28.4818 14.6283 28.6592 14.5751C28.8365 14.5219 29.0243 14.5129 29.2059 14.549L29.2023 14.549Z" id="Vector"/>
	<path fill-rule="nonzero" fill="rgb(94,58,25)" d="M27.9 12.2294C27.7215 12.158 27.6072 12.565 27.3859 12.3133C27.2671 12.1941 27.18 12.047 27.1326 11.8855C27.0852 11.724 27.079 11.5532 27.1145 11.3886C27.3698 10.2926 28.589 9.63921 29.694 9.90162C30.6151 10.1212 31.5577 10.2444 32.4949 10.3925C33.6248 10.571 34.9583 10.5711 35.3992 12.0348C35.4374 12.1125 35.5002 12.1752 35.5778 12.2134C35.9348 12.4294 36.4418 12.5275 36.4471 13.0309C36.4578 13.8432 36.6256 14.6857 36.2365 15.4605C36.0865 15.755 35.7009 15.8068 35.5224 16.1513C35.4118 16.3584 35.1654 15.9496 35.1511 15.7282C35.1208 15.107 35.1333 14.4787 35.1333 13.8592C35.1333 12.6364 34.7298 12.2258 33.5267 12.2258C33.2597 12.2107 32.9921 12.2107 32.7251 12.2258C31.2971 12.3883 30.0011 12.0081 28.7818 11.2726C28.7211 11.7064 28.7211 11.7064 29.9832 12.3151C29.5673 12.524 28.9746 12.4115 28.4123 11.9759C28.0392 11.6849 27.8768 11.7117 27.9178 12.2205L27.9 12.2294Z" id="Vector"/>
	<path fill-rule="nonzero" fill="rgb(223,176,123)" d="M29.7793 22.0985C30.538 22.1824 31.2841 22.352 32.0321 22.2396C32.4449 22.1597 32.8531 22.0578 33.2549 21.9343C33.3602 21.9057 33.4673 21.8343 33.5619 21.9343C33.6566 22.0343 33.6334 22.1824 33.5923 22.3092C33.3942 22.9411 32.1642 23.4231 31.0396 23.316C30.7259 23.2773 30.4333 23.1376 30.2059 22.918C29.9786 22.6983 29.8288 22.4107 29.7793 22.0985Z" id="Vector"/>
	<path fill-rule="nonzero" fill="rgb(57,77,81)" d="M32.9922 23.4491C33.2921 23.101 33.7187 22.885 33.9472 22.4566C34.0293 22.303 34.2757 22.3601 34.4471 22.3976C35.3343 22.5654 36.1722 22.9315 36.898 23.4687L34.3203 23.4687L32.9922 23.4491Z" id="Vector"/>
	<path fill-rule="nonzero" fill="rgb(94,58,25)" d="M32.9924 23.4507L34.3205 23.4596C34.3205 23.5364 34.3205 23.6131 34.3205 23.6881L25.752 23.7006C25.8037 23.4114 26.0162 23.4114 26.2072 23.4953C26.3079 23.542 26.419 23.5619 26.5297 23.5531C26.6404 23.5444 26.7469 23.5072 26.8391 23.4453L30.3004 23.4453L32.9924 23.4507Z" id="Vector"/>
	<path fill-rule="nonzero" fill="rgb(57,77,81)" d="M30.3149 23.4506L26.8535 23.4506C27.2802 22.9418 27.9085 22.8436 28.4905 22.6598C28.6529 22.608 28.8332 22.6401 28.9885 22.5134C29.2241 22.317 29.4312 22.3349 29.5401 22.6669C29.6579 23.0507 30.1363 23.1025 30.3149 23.4506Z" id="Vector"/>
	<path fill-rule="nonzero" fill="rgb(223,176,123)" d="M26.9239 18.677C26.2617 18.0397 26.0742 17.0704 26.4901 16.5741C26.6026 16.4438 26.7312 16.2867 26.9311 16.3795C26.966 16.3971 26.9971 16.4214 27.0225 16.4511C27.0479 16.4808 27.0672 16.5153 27.0791 16.5525C27.0911 16.5898 27.0955 16.629 27.0922 16.6679C27.0888 16.7069 27.0778 16.7448 27.0596 16.7794C26.6258 17.2471 27.081 17.7237 27.0114 18.1879C26.9971 18.3307 27.065 18.4878 26.9239 18.677Z" id="Vector"/>
	<path fill-rule="nonzero" fill="rgb(223,176,123)" d="M39.4766 28.5991C39.5427 29.0079 39.4034 29.1935 38.9643 29.1079C38.7436 29.0783 38.5211 29.0639 38.2984 29.065C38.1003 29.0543 37.9414 28.9918 37.9414 28.7598C37.9414 28.6689 37.9775 28.5817 38.0418 28.5174C38.1061 28.4531 38.1933 28.417 38.2842 28.417C38.6835 28.3651 39.0894 28.4225 39.4588 28.583L39.4766 28.5991Z" id="Vector"/>
	<path fill-rule="nonzero" fill="rgb(223,176,123)" d="M38.6102 29.3217C38.928 29.3735 39.4671 29.2664 39.4421 29.718C39.4118 30.2535 38.8905 29.9215 38.5799 29.9554C38.5573 29.9574 38.5346 29.9537 38.5138 29.9447C38.2925 29.8215 37.8158 30.0304 37.8694 29.5877C37.9158 29.186 38.3317 29.361 38.6102 29.3217Z" id="Vector"/>
	<path fill-rule="nonzero" fill="rgb(94,58,25)" d="M27.1003 15.4599C26.7254 14.6227 26.8343 13.9122 26.854 13.216C26.8482 13.1024 26.8779 12.9898 26.939 12.8938C27.0001 12.7979 27.0895 12.7233 27.1949 12.6805C27.2366 12.6772 27.2785 12.6843 27.3168 12.7011C27.3551 12.7179 27.3887 12.7439 27.4145 12.7769C27.5359 13 27.3574 13.1339 27.236 13.2963C26.9611 13.6534 27.1414 14.0657 27.1021 14.4513C27.0735 14.7333 27.1003 15.0136 27.1003 15.4599Z" id="Vector"/>
	<path fill-rule="nonzero" fill="rgb(223,176,123)" d="M38.8946 30.8441C38.5947 30.7173 38.0734 30.9369 37.9645 30.3817C37.9181 30.1461 38.1752 30.08 38.334 30.1443C38.6768 30.28 39.2016 30.0479 39.348 30.5531C39.4194 30.7994 39.1463 30.8423 38.8946 30.8441Z" id="Vector"/>
	<path fill-rule="nonzero" fill="rgb(94,58,25)" d="M24.7167 23.7312C24.5971 23.9757 24.3597 23.9436 24.1544 23.9525C24.2455 23.6098 24.5043 23.7419 24.7167 23.7312Z" id="Vector"/>
	<path fill-rule="nonzero" fill="rgb(94,58,25)" d="M27.9004 12.2305C28.0611 12.2448 28.2574 12.1912 28.3502 12.4411C28.12 12.5143 27.9432 12.5357 27.9004 12.2305Z" id="Vector"/>
	<path fill-rule="nonzero" fill="rgb(94,58,25)" d="M24.0321 23.9922C23.9339 24.0707 23.8982 24.2242 23.7429 24.2332L23.6465 24.0082L24.0321 23.9922Z" id="Vector"/>
	<path fill-rule="nonzero" fill="rgb(57,77,81)" d="M29.3594 34.6607C31.1142 34.6607 31.1695 34.6607 31.0892 36.4458C31.0089 38.2309 30.8197 39.9696 30.6358 41.7262C30.6055 42.01 30.6715 42.2778 30.6144 42.5705C30.4359 43.4863 29.9592 43.7933 28.8507 43.6005C27.9956 43.4542 27.8742 43.347 27.9099 42.4795C28.0045 40.1338 27.5529 37.8132 27.6082 35.4675C27.6225 34.8285 27.7868 34.575 28.4258 34.6607C28.7367 34.6812 29.0486 34.6812 29.3594 34.6607Z" id="Vector"/>
	<path fill-rule="nonzero" fill="rgb(57,77,81)" d="M35.3925 36.2281C35.2818 38.463 35.0623 40.6909 35.1194 42.9348C35.1194 43.2918 35.0069 43.4846 34.6285 43.4881C34.1037 43.4881 33.586 43.5756 33.0504 43.5078C32.6166 43.4542 32.4596 43.2668 32.456 42.8776C32.4346 40.914 32.14 38.9504 32.0347 36.9867C31.9954 36.3691 31.9221 35.7541 31.8151 35.1445C31.758 34.7875 31.8669 34.6536 32.2221 34.6572C33.0915 34.6572 33.9591 34.6768 34.8266 34.6572C35.264 34.6429 35.4353 34.7928 35.3979 35.2302C35.3693 35.5586 35.3925 35.8942 35.3925 36.2281Z" id="Vector"/>
	<path fill-rule="nonzero" fill="rgb(77,54,38)" d="M30.6805 43.7461L30.7252 44.4173C30.9037 45.2152 30.4663 45.6383 29.8112 45.9632C28.7687 46.4827 27.7333 46.9825 26.5391 46.4398L27.105 46.4041C27.7288 46.4727 28.3599 46.3831 28.9401 46.1435C29.2185 46.0292 29.2489 45.8757 29.1186 45.6401C29.7684 45.2831 30.5467 45.026 30.2932 44.021C30.2932 43.9335 30.2932 43.8425 30.2932 43.7586L30.6805 43.7461Z" id="Vector"/>
	<path fill-rule="nonzero" fill="rgb(77,54,38)" d="M32.7247 43.8962C33.4193 43.6672 34.1679 43.6597 34.8669 43.8748L34.8544 43.8873C34.4974 43.9247 34.1189 43.773 33.7833 44.014L33.528 44.014C33.4965 43.9729 33.456 43.9396 33.4096 43.9167C33.3631 43.8938 33.312 43.8819 33.2603 43.8819C33.2085 43.8819 33.1574 43.8938 33.111 43.9167C33.0645 43.9396 33.024 43.9729 32.9925 44.014L32.7247 43.8962Z" id="Vector"/>
	<path fill-rule="nonzero" fill="rgb(136,43,23)" d="M32.7253 43.8984L32.9734 44.0163C32.9734 44.3733 32.9645 44.741 32.9609 45.1034C32.4486 45.123 32.8431 44.7017 32.6914 44.5482C32.7021 44.3304 32.7146 44.1144 32.7253 43.8984Z" id="Vector"/>
	<path fill-rule="nonzero" fill="rgb(77,54,38)" d="M34.8647 43.875L34.9986 44.0035L34.9736 44.0357C34.9347 44.0318 34.8964 44.0234 34.8594 44.0107C34.8594 43.9696 34.8594 43.9285 34.8594 43.8875L34.8647 43.875Z" id="Vector"/>
	<path fill-rule="nonzero" fill="rgb(77,54,38)" d="M26.2887 45.3359C26.4476 45.685 26.5332 46.0629 26.5404 46.4463C26.0013 46.1785 26.0299 45.784 26.2887 45.3359Z" id="Vector"/>
	<path fill-rule="nonzero" fill="rgb(223,176,123)" d="M23.5304 29.3125C23.8161 29.3339 24.1588 29.2482 24.1677 29.6374C24.1677 29.9837 23.8464 29.9177 23.6215 29.9587C23.5996 29.9623 23.5773 29.9623 23.5554 29.9587C23.2377 29.9159 22.7021 30.2622 22.6521 29.8016C22.5968 29.3054 23.1734 29.3553 23.5304 29.3125Z" id="Vector"/>
	<path fill-rule="nonzero" fill="rgb(223,176,123)" d="M23.1998 30.9081C22.9445 30.9224 22.7321 30.8545 22.7803 30.6421C22.9142 30.0673 23.4729 30.3244 23.8282 30.1762C23.8638 30.1574 23.9042 30.1494 23.9444 30.1533C23.9845 30.1571 24.0227 30.1726 24.0541 30.1978C24.0856 30.223 24.109 30.2569 24.1215 30.2952C24.134 30.3335 24.135 30.3747 24.1245 30.4136C23.996 30.9366 23.4801 30.7599 23.1998 30.9081Z" id="Vector"/>
	<path fill-rule="nonzero" fill="rgb(223,176,123)" d="M23.0408 29.123C22.782 29.1658 22.6178 29.0837 22.6481 28.8624C22.7142 28.3929 23.1283 28.4821 23.4318 28.4571C23.6763 28.4357 24.0851 28.4322 24.003 28.7945C23.8888 29.3408 23.2979 28.8927 23.0408 29.123Z" id="Vector"/>
	<path fill-rule="nonzero" fill="rgb(196,56,26)" d="M34.8585 44.0078C34.8955 44.0206 34.9338 44.0289 34.9728 44.0328C35.1084 44.5683 34.4569 44.0917 34.5122 44.5076C35.3244 44.4773 36.1438 44.6058 36.4526 45.6091C35.5958 46.0446 34.7086 45.8857 33.8214 45.7376C33.5393 45.5162 33.1519 45.4377 32.9609 45.0985C32.9609 44.7415 32.9609 44.3738 32.9734 44.0114L33.509 44.0114L33.7714 44.0114L34.8585 44.0078Z" id="Vector"/>
	<path fill-rule="nonzero" fill="rgb(136,43,23)" d="M33.8216 45.7457C34.7141 45.8939 35.596 46.0528 36.4528 45.6172C36.5349 46.1849 36.1743 46.3527 35.7156 46.4187C34.9515 46.5258 34.2875 46.2152 33.6609 45.8475C33.5931 45.8028 33.7537 45.7636 33.8216 45.7457Z" id="Vector"/>
	<path fill-rule="nonzero" fill="rgb(196,56,26)" d="M30.302 44.0235C30.5537 45.0285 29.7772 45.2892 29.1274 45.6426C28.3651 45.7872 27.61 46.0711 26.8246 45.7551C26.6871 45.1803 27.2173 44.5484 27.8832 44.5055C28.2009 44.4895 28.5222 44.5055 28.856 44.5055C28.7275 44.2163 28.4009 44.352 28.1134 44.0557C28.9096 43.9414 29.6112 44.0414 30.302 44.0235Z" id="Vector"/>
	<path fill-rule="nonzero" fill="rgb(136,43,23)" d="M26.8256 45.7531C27.611 46.0691 28.3661 45.7852 29.1284 45.6406C29.2498 45.8763 29.2194 46.0298 28.9499 46.144C28.3697 46.3836 27.7386 46.4732 27.1147 46.4046C27.0594 46.1672 26.7452 46.0476 26.8256 45.7531Z" id="Vector"/>
	<path fill-rule="nonzero" fill="rgb(250,226,190)" d="M29.1477 28.7003C29.1477 28.0576 29.1477 27.415 29.1477 26.7723C29.1477 26.36 29.2976 26.2546 29.6832 26.4921C30.7419 27.1759 31.8352 27.8045 32.9589 28.3753C33.3516 28.5664 33.4391 28.7895 33.0249 29.1037C32.0378 29.8552 30.9096 30.3729 29.8742 31.0459C29.4297 31.3369 29.1602 31.1655 29.1459 30.6282C29.1209 29.9855 29.1459 29.3429 29.1459 28.7003L29.1477 28.7003Z" id="Vector"/>
	<path fill-rule="nonzero" fill="rgb(250,226,190)" d="M32.7002 15.6055C33.159 15.6055 33.6214 16.0214 33.6178 16.4231C33.6178 17.2603 33.2715 17.6941 32.6181 17.7173C31.888 17.7423 31.8826 17.2567 31.8898 16.7355C31.9041 15.809 32.0469 15.6019 32.7002 15.6055ZM32.6806 16.166C32.3396 16.2357 32.3129 16.4999 32.3075 16.7676C32.3022 17.0354 32.3075 17.3603 32.6449 17.3799C33.0233 17.4013 33.0769 17.0461 33.0751 16.7694C33.0733 16.4927 33.0091 16.2392 32.6806 16.166Z" id="Vector"/>
	<path fill-rule="nonzero" fill="rgb(250,226,190)" d="M28.7096 15.5024C29.2702 14.9419 29.4005 15.6381 29.6022 15.8594C29.8039 16.0808 29.8021 16.4699 29.8057 16.8127C29.8057 17.3482 29.6272 17.6695 29.0684 17.7052C28.5097 17.7409 28.1884 17.4767 28.1616 16.8984C28.1616 16.8323 28.1509 16.7663 28.1437 16.7002C28.1009 16.1986 28.5115 15.9005 28.7096 15.5024ZM29.5058 16.6788C29.4933 16.4771 29.5343 16.1433 29.1684 16.1433C28.8024 16.1433 28.7757 16.5003 28.781 16.7859C28.7864 17.0715 28.781 17.4393 29.1755 17.4107C29.57 17.3821 29.4969 17.0055 29.5094 16.6788L29.5058 16.6788Z" id="Vector"/>
	<path fill-rule="nonzero" fill="rgb(94,58,25)" d="M33.1231 18.9688C33.0553 19.4579 32.7661 19.581 32.5323 19.6828C31.4719 20.1791 30.3901 20.229 29.3191 19.7185C29.1995 19.6614 29.0584 19.5882 29.1173 19.4258C29.1763 19.2633 29.2958 19.3418 29.3905 19.3954C30.6722 20.0684 31.8646 19.8363 33.1231 18.9688Z" id="Vector"/>
	<path fill-rule="nonzero" fill="rgb(94,58,25)" d="M31.5825 18.4336C31.422 18.5993 31.2265 18.7271 31.0104 18.8077C30.7942 18.8883 30.5628 18.9197 30.333 18.8995C30.1874 18.9011 30.0442 18.862 29.9196 18.7867C29.795 18.7113 29.694 18.6026 29.6278 18.4729C29.5638 18.3396 29.551 18.1874 29.5918 18.0452C29.6326 17.903 29.7242 17.7808 29.8492 17.7017C30.3419 17.3269 30.3454 16.7503 30.5061 16.2344C30.6239 16.8128 30.6846 17.3715 30.1634 17.7981C29.9849 17.9427 29.8224 18.1212 29.9313 18.3694C30.0402 18.6175 30.3169 18.6568 30.5632 18.6282C30.8596 18.5979 31.1505 18.5211 31.5825 18.4336Z" id="Vector"/>
	<path fill-rule="nonzero" fill="rgb(77,54,38)" d="M32.6837 13.8594C32.9532 13.9004 33.2192 13.9236 33.3799 14.1111C33.5405 14.2985 33.9654 14.4931 33.7798 14.7751C33.5941 15.0572 33.4031 14.6395 33.196 14.577C32.9624 14.5209 32.7217 14.5005 32.482 14.5163C32.2803 14.5163 31.9911 14.6663 31.9268 14.3556C31.8625 14.045 32.1624 13.9861 32.3927 13.9165C32.4883 13.8911 32.5855 13.872 32.6837 13.8594Z" id="Vector"/>
	<path fill-rule="nonzero" fill="rgb(77,54,38)" d="M29.2054 14.549C29.0257 14.515 28.8404 14.525 28.6654 14.5782C28.4904 14.6313 28.3309 14.726 28.2004 14.8542C28.1201 14.9239 28.0058 14.9863 27.9041 14.8917C27.8023 14.7971 27.863 14.6829 27.9255 14.5954C28.2397 14.1688 28.6128 13.8528 29.1965 13.9349C29.4607 13.9706 29.7874 13.9777 29.7499 14.3419C29.7124 14.7061 29.3893 14.5436 29.2054 14.549Z" id="Vector"/>
	<path fill-rule="nonzero" fill="rgb(94,58,25)" d="M35.9218 18.3711C35.8218 18.2176 36.2199 17.7713 35.6415 17.8998C35.6415 17.5428 35.5951 17.1501 36.177 17.043C36.0182 17.4964 36.3555 17.9855 35.9271 18.3657L35.9218 18.3711Z" id="Vector"/>
	<path fill-rule="nonzero" fill="rgb(57,77,81)" d="M28.708 15.5C28.5062 15.8981 28.0957 16.1962 28.1332 16.7067C27.9636 16.0052 28.1314 15.6517 28.708 15.5Z" id="Vector"/>
	<path fill-rule="nonzero" fill="rgb(94,58,25)" d="M35.9226 18.3672L35.9102 18.385L35.9226 18.3708L35.9226 18.3672Z" id="Vector"/>
	<path fill-rule="nonzero" fill="rgb(136,43,23)" d="M34.8582 44.0111L33.7871 44.0111C34.1209 43.7701 34.5012 43.9218 34.8582 43.8843C34.8554 43.9265 34.8554 43.9689 34.8582 44.0111Z" id="Vector"/>
	<path fill-rule="nonzero" fill="rgb(136,43,23)" d="M33.5277 44.011L32.9922 44.011C33.0237 43.97 33.0642 43.9367 33.1107 43.9137C33.1571 43.8908 33.2082 43.8789 33.26 43.8789C33.3117 43.8789 33.3628 43.8908 33.4092 43.9137C33.4557 43.9367 33.4962 43.97 33.5277 44.011Z" id="Vector"/>
	<path fill-rule="nonzero" fill="rgb(77,54,38)" d="M32.6801 16.168C33.0086 16.2412 33.071 16.525 33.0746 16.7713C33.0782 17.0177 33.0228 17.4033 32.6444 17.3818C32.3106 17.3622 32.3034 17.0355 32.307 16.7696C32.3106 16.5036 32.3391 16.2376 32.6801 16.168Z" id="Vector"/>
	<path fill-rule="nonzero" fill="rgb(77,54,38)" d="M29.5089 16.678C29.4964 17.0118 29.5696 17.3831 29.1786 17.4081C28.7877 17.4331 28.7895 17.0511 28.7841 16.7833C28.7788 16.5156 28.7841 16.146 29.1715 16.1407C29.5588 16.1353 29.4964 16.4692 29.5089 16.678Z" id="Vector"/>
</svg>