<svg width="149" height="48" viewBox="0 0 149 48" fill="none" xmlns="http://www.w3.org/2000/svg">
<g clip-path="url(#clip0_15756_514)">
<path d="M26.5664 11.2748C24.2541 16.7611 21.9406 22.2461 19.6259 27.73C19.4984 28.0609 19.4407 28.4147 19.4563 28.769C19.4563 34.7116 19.4563 40.6543 19.4688 46.5951C19.4688 47.1307 19.3564 47.3199 18.7816 47.3092C16.6394 47.2735 14.5002 47.2735 12.3641 47.3092C11.775 47.3092 11.5768 47.1931 11.5804 46.5559C11.6072 40.6132 11.5929 34.6706 11.6 28.7297C11.6017 28.3532 11.527 27.9804 11.3805 27.6336C7.61507 18.5688 3.855 9.5022 0.10031 0.433804C0.0622443 0.33099 0.0300532 0.226092 0.00390625 0.119622C0.182418 -0.0588898 0.387725 0.0160712 0.580517 0.0160712C2.94223 0.0160712 5.30571 0.0321451 7.66742 0.00179811C8.1494 0.00179811 8.32613 0.180313 8.47251 0.585535C10.7075 6.60376 12.9472 12.6184 15.1917 18.6295C15.2595 18.808 15.3363 18.9865 15.438 19.2489C15.7058 18.9865 15.7665 18.683 15.8718 18.4153C18.2091 12.5101 20.5405 6.60376 22.8659 0.696211C23.0569 0.208874 23.2765 -0.00177387 23.8549 1.12457e-05C34.7524 0.0214326 45.6499 0.0214326 56.5475 1.12457e-05C57.033 1.12457e-05 57.1955 0.0874898 57.1866 0.610529C57.1526 2.59022 57.158 4.57169 57.1866 6.55138C57.1866 7.02087 57.0616 7.14583 56.5921 7.14226C53.7359 7.12084 50.8797 7.14226 48.0343 7.11727C47.4737 7.11727 47.4023 7.29578 47.4023 7.78133C47.4154 20.6901 47.4237 33.5983 47.4273 46.5059C47.4273 47.1485 47.2792 47.3217 46.6294 47.3074C44.4872 47.2628 42.3451 47.2806 40.203 47.3074C39.7799 47.3074 39.6335 47.2146 39.6353 46.7594C39.6567 41.4843 39.6549 36.2093 39.6585 30.9361C39.6585 30.3416 39.6746 29.749 39.6585 29.151C39.6585 28.9618 39.8013 28.694 39.48 28.5958L39.4675 28.5797L39.5407 28.3619C39.7513 28.212 39.646 27.9942 39.646 27.8103C39.646 21.1126 39.646 14.422 39.6674 7.71707C39.6674 7.18153 39.4889 7.11727 39.0212 7.12084C36.1472 7.14227 33.2713 7.12084 30.3973 7.14226C29.9635 7.14226 29.8172 7.03695 29.8332 6.58888C29.8671 5.64991 29.8439 4.70915 29.8439 3.77018L29.7118 3.74518L26.9235 10.5054C26.8467 10.7803 26.5272 10.9446 26.5664 11.2748Z" fill="#2A2A2A"/>
<path d="M88.0821 37.2768C88.3267 34.8383 89.3674 32.814 91.1508 31.1217C93.1662 29.2116 95.6457 28.1495 98.1788 27.2034C100.012 26.5179 101.892 25.9538 103.764 25.3808C104.207 25.2451 104.393 25.0613 104.38 24.6025C104.35 23.5171 104.437 22.4371 104.162 21.3553C103.748 19.7345 102.506 18.7294 100.812 18.6509C97.7164 18.5063 96.0259 20.2236 95.0798 22.7745C94.9334 23.1708 94.7906 23.3226 94.3658 23.219C92.8109 22.8352 91.2525 22.4675 89.6941 22.1051C89.3049 22.0158 89.3371 21.7677 89.4156 21.4928C89.7495 20.2516 90.2624 19.0658 90.9383 17.9726C92.5896 15.2574 95.0191 13.749 98.1484 13.2598C100.698 12.86 103.204 12.9421 105.646 13.7847C108.324 14.7111 109.875 16.6855 110.564 19.3774C110.901 20.6916 111.072 22.0427 111.073 23.3993C111.073 28.8278 111.083 34.2564 111.073 39.6849C111.073 42.0056 111.43 44.2941 111.548 46.6005C111.56 46.8415 111.726 47.1164 111.455 47.3252C111.414 46.77 111.098 47.2574 110.983 47.2538C109.02 47.2003 107.042 47.2056 105.071 47.1985C104.96 46.3202 104.853 45.4419 104.735 44.5636C104.714 44.3851 104.698 44.1388 104.591 44.0799C104.378 43.9603 104.234 44.2191 104.112 44.3441C102.506 45.8953 100.642 47.036 98.468 47.5805C95.4493 48.3374 92.561 48.2089 90.1939 45.8793C88.8479 44.5547 88.2517 42.8446 88.0625 40.9809L88.0821 37.2768ZM104.136 34.5991C104.136 33.2657 104.136 31.934 104.136 30.6005C104.136 30.2434 104.093 30.0399 103.663 30.1917C102.429 30.6272 101.178 31.0093 99.9603 31.4805C98.6357 31.9946 97.2826 32.5766 96.3901 33.6976C94.796 35.6738 94.6567 37.9694 95.4475 40.3026C95.8813 41.5754 96.931 42.1912 98.3037 42.1716C100.706 42.1359 102.493 40.9399 103.971 39.1601C104.15 38.9441 104.15 38.7156 104.15 38.4728C104.142 37.178 104.137 35.8862 104.136 34.5974V34.5991Z" fill="#E52621"/>
<path d="M70.7142 41.0791C69.6075 45.1652 66.6406 47.1485 62.7008 47.759C60.5712 48.0928 58.4433 48.116 56.3333 47.5912C53.4771 46.8772 51.4367 45.1795 50.1639 42.5518C49.7352 41.6739 49.3811 40.7615 49.1054 39.8242C49.0036 39.4671 48.9447 39.1958 49.4249 39.0691C51.0315 38.6442 52.6381 38.1908 54.2447 37.7499C54.7624 37.6088 54.7803 38.064 54.8695 38.3354C55.1996 39.3032 55.7082 40.2006 56.369 40.9809C57.5918 42.409 59.2056 42.6982 60.9764 42.5001C62.1349 42.3715 63.1346 41.9288 63.7826 40.9345C64.7698 39.419 64.4306 37.9159 63.572 36.4717C62.7526 35.1008 61.3941 34.351 60.0606 33.5959C57.9988 32.4284 55.8371 31.4538 53.877 30.0882C48.8323 26.5983 48.809 20.0397 51.3957 16.6552C52.8059 14.8076 54.6999 13.815 56.9028 13.3009C58.3059 12.9742 59.734 12.9653 61.1567 13.0742C64.9947 13.3723 67.8241 15.1521 69.3397 18.7866C69.586 19.3774 69.7895 19.988 70.0162 20.5895C70.168 20.9948 70.0287 21.1911 69.6057 21.3036C68.1657 21.6773 66.7316 22.0712 65.3035 22.4853C64.8876 22.6067 64.6716 22.571 64.4895 22.1283C63.9915 20.9055 63.3381 19.788 62.1689 19.049C60.8318 18.2028 58.2523 18.376 57.0831 19.4257C55.9138 20.4753 55.8656 22.7281 57.0188 24.033C58.2059 25.379 59.7732 26.1752 61.3548 26.9196C63.2399 27.8121 65.1036 28.7529 66.7798 30.006C68.4428 31.2141 69.7181 32.8801 70.45 34.8008L70.9641 37.4785C70.9641 37.6106 70.9766 37.7427 70.9838 37.873V39.2101C70.9838 39.2976 70.9838 39.3886 70.9838 39.4743C70.8856 40.0098 70.7999 40.5436 70.7142 41.0791Z" fill="#E52621"/>
<path d="M142.28 2.80975C142.296 4.1593 142.323 5.51065 142.328 6.86198C142.328 8.85953 142.367 10.8588 142.308 12.8546C142.289 13.5687 142.537 13.6829 143.174 13.6704C144.881 13.6418 146.589 13.6865 148.298 13.7025H142.521C143.595 13.8223 144.676 13.8646 145.756 13.8293C146.637 13.8114 147.525 13.9293 148.401 13.7561C148.564 13.8971 148.497 14.0881 148.499 14.2559C148.499 15.8143 148.489 17.371 148.499 18.9276C148.499 19.3292 148.394 19.4631 147.976 19.4631C146.284 19.4399 144.584 19.4631 142.898 19.4435C142.423 19.4435 142.31 19.5916 142.31 20.0486C142.328 26.0752 142.325 32.1035 142.333 38.1301C142.319 38.5526 142.353 38.9754 142.433 39.3904C142.76 40.772 143.572 41.354 145.013 41.3915C146.066 41.4147 147.093 41.2505 148.123 41.0844C148.364 41.263 148.265 41.5361 148.265 41.7663C148.274 43.3176 148.265 44.8671 148.265 46.4184H148.405V41.1041C148.572 41.8699 148.464 42.6464 148.478 43.4247C148.501 44.5136 148.478 45.6044 148.494 46.6933C148.494 47.0699 148.403 47.211 147.992 47.277C145.59 47.6662 143.194 47.8857 140.759 47.5323C137.814 47.1056 136.069 45.3419 135.675 42.3287C135.51 41.0059 135.433 39.6737 135.443 38.3407C135.443 32.291 135.432 26.243 135.461 20.195C135.461 19.5488 135.255 19.431 134.679 19.4471C133.501 19.481 132.321 19.447 131.143 19.4345V13.8525C132.358 13.8525 133.574 13.8525 134.791 13.8525C134.993 13.8525 135.243 13.9578 135.388 13.699C135.404 13.2795 135.436 12.86 135.436 12.4494C135.436 9.38969 135.439 6.33002 135.445 3.27033C135.453 3.14081 135.469 3.01198 135.495 2.88474C136.58 2.89545 137.665 2.92758 138.751 2.91152C139.94 2.86153 141.112 2.97577 142.28 2.80975ZM142.142 38.7566L142.205 38.787V19.622H142.142V38.7566ZM142.142 13.2563L142.205 13.2848V3.8594H142.142V13.2563Z" fill="#E52621"/>
<path d="M87.8389 47.0325C87.1517 47.4859 86.3555 47.4056 85.5951 47.4877H80.3361C77.4496 47.2627 75.8733 45.6526 75.2574 43.0874C75.0986 42.4286 75.0486 41.7449 74.9468 41.0719C74.9254 40.4489 74.8861 39.8224 74.8861 39.2047C74.8861 32.8176 74.8594 26.4304 74.8861 20.0433C74.8861 19.3739 74.6398 19.3703 74.1721 19.4631C73.0814 19.4631 71.9907 19.4399 70.9 19.4453C70.5983 19.4453 70.4091 19.4328 70.4162 19.0329C70.4466 17.2978 70.4448 15.5644 70.4537 13.8293C71.4069 13.8293 72.362 13.8454 73.3099 13.8293C73.7615 13.8186 74.231 13.9632 74.6666 13.7222C75.0414 13.6294 74.9557 13.3348 74.9557 13.076C74.9557 9.93953 74.9683 6.80308 74.9451 3.66663C74.9451 3.09004 75.0504 2.85439 75.7037 2.87046C77.6852 2.91687 79.6685 2.88654 81.6517 2.88654C81.6624 3.2632 81.6857 3.63985 81.6857 4.01651C81.6952 7.21663 81.7011 10.4173 81.7035 13.6187C81.8088 13.9757 82.1016 13.8257 82.314 13.8275C84.1455 13.8454 85.9753 13.8489 87.8068 13.8561C87.8711 15.7197 87.8639 17.5834 87.8068 19.4471L82.1926 19.4685C81.5768 19.3257 81.6874 19.7648 81.6874 20.104C81.6874 26.0199 81.6874 31.9363 81.6874 37.8534C81.6797 38.1423 81.6898 38.4315 81.7178 38.7192C81.8695 39.9491 82.2533 41.022 83.6618 41.3147C84.9613 41.5075 86.2377 41.3147 87.5087 41.0737C87.8961 41.0737 87.8229 41.3611 87.8229 41.595L87.8389 47.0325Z" fill="#E52621"/>
<path d="M128.248 20.2271C126.155 20.527 124.65 21.7427 123.428 23.3582C122.842 24.1358 122.348 24.9786 121.957 25.8699C121.671 26.0645 121.801 26.359 121.801 26.6036C121.792 33.1978 121.792 39.7926 121.801 46.388C121.801 46.6201 121.705 46.8825 121.93 47.0771L121.892 47.1967L115.13 47.2306C114.97 46.5487 115.061 45.8578 115.061 45.1741C115.05 34.905 115.05 24.6358 115.061 14.3666C115.072 14.1917 115.093 14.0176 115.125 13.8454L121.718 13.815C121.88 15.2056 121.743 16.5998 121.787 17.9904C121.787 18.2421 121.734 18.5063 121.9 18.8258C122.658 17.6548 123.338 16.523 124.236 15.5501C125.859 13.79 127.826 12.8546 130.263 13.051L130.731 13.2295L130.839 13.3777C130.812 13.7989 130.786 14.2214 130.761 14.6451C130.5 15.0021 130.636 15.4252 130.65 15.8072C130.684 16.7515 130.49 17.7048 130.756 18.6384C130.765 18.9454 130.756 19.2525 130.786 19.5577C130.832 20.0718 130.622 20.2521 130.131 20.0933C129.476 19.8969 128.862 20.0683 128.248 20.2271Z" fill="#E52621"/>
<path d="M39.477 28.5975C39.8001 28.6957 39.6555 28.9546 39.6555 29.1527C39.6734 29.7472 39.6555 30.3398 39.6555 30.9378C39.2128 31.0681 39.0396 31.3716 39.0521 31.8304C39.0512 32.0498 39.0333 32.2688 38.9986 32.4855C38.8683 33.5084 38.2595 33.9975 37.1224 34.0011C36.6012 33.7369 36.0353 33.9743 35.5016 33.8583C36.1799 33.7833 36.8582 33.6797 37.5384 33.6405C37.7599 33.6334 37.9743 33.5606 38.1543 33.4312C38.3342 33.3018 38.4715 33.1217 38.5487 32.9139C38.6851 32.5386 38.7768 32.1486 38.8219 31.7518C38.879 31.443 38.8344 31.2163 38.4363 31.1288C37.8311 30.9949 37.5437 30.6272 37.5794 29.9417C37.5919 29.6418 37.7686 29.3473 37.6794 29.0777C37.4741 28.4636 37.7722 28.2512 38.2988 28.2262C38.7629 28.203 38.8968 27.9924 38.8469 27.555C38.7433 26.6625 38.7023 25.7431 38.5666 24.8452C38.497 24.39 38.2578 24.0651 37.6972 23.9205C36.5708 23.6331 35.4373 23.8241 34.3162 23.6992C34.3162 23.6242 34.3162 23.5474 34.3162 23.4725H36.8939C36.1681 22.9353 35.3302 22.5691 34.443 22.4014C34.2645 22.3639 34.0252 22.3068 33.9431 22.4603C33.7146 22.8887 33.288 23.1047 32.9881 23.4528H30.3104C30.1319 23.1047 29.6624 23.0529 29.5357 22.6638C29.4268 22.3264 29.2197 22.3068 28.9841 22.5103C28.8288 22.637 28.6485 22.6049 28.486 22.6567C27.9041 22.8352 27.2757 22.9387 26.8491 23.4475C26.7569 23.5094 26.6504 23.5465 26.5397 23.5553C26.429 23.564 26.3179 23.5441 26.2172 23.4975C26.0262 23.4136 25.8137 23.4136 25.7619 23.7027L24.7212 23.7349C24.5088 23.7456 24.2428 23.6188 24.1589 23.9562C24.1425 23.9708 24.1232 23.9817 24.1023 23.9881C24.0813 23.9946 24.0593 23.9965 24.0375 23.9937L23.6537 24.0098L23.627 23.9901C24.0482 23.5189 24.6159 23.4189 25.1978 23.4368C25.8396 23.4753 26.4765 23.3049 27.0133 22.9512C27.7131 22.4924 28.5664 22.3621 29.5125 21.9819C28.4128 21.6659 27.6113 21.1839 27.3132 20.1968C27.1347 19.5916 26.924 19.0775 26.4206 18.6116C25.7423 17.9868 25.8566 16.7676 26.5313 16.1695C26.6056 16.1098 26.6617 16.0306 26.6932 15.9406C26.7248 15.8507 26.7305 15.7538 26.7099 15.6608C26.6277 14.5415 26.3635 13.4312 26.8241 12.3083C26.924 12.0673 26.8384 11.5943 26.5777 11.2872C26.542 10.957 26.8616 10.7928 26.9348 10.5179C27.9362 9.62532 29.0769 9.36469 30.3836 9.69137C31.2762 9.91451 32.1794 9.99304 33.0791 10.1305C33.8896 10.2555 34.7554 10.3501 35.2855 11.0766C35.6426 11.5675 35.9318 12.0799 36.4584 12.4387C36.7636 12.6475 36.8582 13.0581 36.885 13.4526C36.9192 14.1423 36.8053 14.8313 36.5512 15.4734C36.428 15.8161 36.4423 16.0303 36.7476 16.3248C37.3331 16.8872 37.2188 17.6298 36.9636 18.317C36.744 18.9043 36.3691 19.3881 35.6693 19.3881C35.3587 19.3881 35.3123 19.5149 35.2391 19.7451C35.0695 20.3234 34.7577 20.85 34.3323 21.2768C34.1859 21.4232 33.8574 21.4749 33.9289 21.7302C34.0003 21.9855 34.3073 22.014 34.5376 22.0765C35.3779 22.288 36.1899 22.599 36.9564 23.003C37.267 23.1708 37.4223 23.5242 37.8204 23.5921C38.5059 23.7081 38.7987 24.1901 38.904 24.8416C39.0294 25.7886 39.0944 26.7426 39.0985 27.6978C39.111 28.0745 39.2414 28.2441 39.5448 28.3601C39.5216 28.4315 39.4966 28.5047 39.4716 28.5779C39.1023 28.4173 38.6964 28.36 38.297 28.4119C38.2061 28.4119 38.1189 28.448 38.0547 28.5123C37.9904 28.5765 37.9543 28.6637 37.9543 28.7546C37.9543 28.9867 38.1078 29.0492 38.3113 29.0599C38.534 29.0588 38.7565 29.0731 38.9772 29.1027C39.4038 29.192 39.543 29.0063 39.477 28.5975ZM27.8987 12.2316C27.9416 12.5368 28.1183 12.5154 28.3486 12.4422C28.2504 12.1923 28.0594 12.2459 27.8987 12.2316C27.8523 11.7228 28.0201 11.696 28.3932 11.987C28.9555 12.4226 29.5482 12.5351 29.9641 12.3262C28.702 11.7175 28.702 11.7175 28.7627 11.2837C29.982 12.0191 31.2797 12.3994 32.7061 12.2369C32.973 12.2218 33.2406 12.2218 33.5076 12.2369C34.7179 12.2369 35.1142 12.6475 35.1142 13.8703C35.1142 14.4933 35.1017 15.1199 35.132 15.7393C35.1427 15.9607 35.3926 16.3695 35.5033 16.1624C35.6908 15.8179 36.071 15.7661 36.2174 15.4716C36.6119 14.6968 36.4387 13.8543 36.428 13.042C36.428 12.5386 35.9068 12.4404 35.5587 12.2244C35.4811 12.1863 35.4183 12.1235 35.3802 12.0459C34.9392 10.575 33.6057 10.5821 32.4758 10.4036C31.5386 10.2555 30.596 10.1323 29.6749 9.91272C28.5699 9.65031 27.3543 10.3037 27.0954 11.3997C27.0599 11.5642 27.0661 11.7351 27.1135 11.8966C27.1609 12.0581 27.248 12.2052 27.3668 12.3244C27.606 12.5672 27.7113 12.1602 27.8987 12.2316ZM34.8375 13.4812C34.9196 13.0813 34.6447 12.7885 34.1502 12.6475C33.6793 12.5084 33.1829 12.4791 32.6989 12.5618C31.2708 12.8028 29.8427 13.0206 28.3986 12.9903C27.7666 12.976 27.631 13.142 27.5595 13.6507C27.2953 15.5252 27.242 17.4233 27.4007 19.3096C27.4935 20.411 28.0987 21.2018 29.1983 21.5713C29.8513 21.7959 30.5329 21.9269 31.2226 21.9605C33.1523 22.0462 34.4358 21.2286 34.9571 19.5988C35.0838 19.2043 35.1106 18.774 35.7211 19.0632C35.8247 19.115 36.0567 18.9704 36.1959 18.8704C36.6601 18.533 36.9796 17.5423 36.7975 16.9907C36.7083 16.7212 36.6065 16.432 36.2727 16.3516C35.9389 16.2713 35.7372 16.4855 35.5587 16.7194C35.4676 16.8354 35.4176 17.0425 35.2266 16.9889C35.0356 16.9354 35.0481 16.7426 35.0213 16.6015C34.8339 15.6251 34.6697 14.6379 34.8375 13.483V13.4812ZM29.7785 22.0961C29.8297 22.4067 29.9803 22.6923 30.2075 22.9102C30.4347 23.128 30.7263 23.2664 31.0388 23.3047C32.1705 23.4118 33.3933 22.9298 33.5915 22.2979C33.6325 22.1711 33.6718 22.0319 33.5611 21.923C33.4504 21.8141 33.3594 21.9034 33.2541 21.923C32.8522 22.0465 32.444 22.1484 32.0313 22.2282C31.2797 22.3496 30.5336 22.1818 29.7785 22.0961ZM26.9223 18.6794C27.0562 18.4902 26.9883 18.3331 27.0097 18.1903C27.0794 17.7262 26.6242 17.2495 27.0579 16.7818C27.0761 16.7472 27.0872 16.7093 27.0905 16.6704C27.0939 16.6314 27.0894 16.5922 27.0775 16.555C27.0655 16.5178 27.0463 16.4833 27.0208 16.4536C26.9954 16.4239 26.9643 16.3995 26.9294 16.382C26.7295 16.2892 26.6009 16.4462 26.4885 16.5766C26.0797 17.0657 26.2671 18.0421 26.9223 18.6794ZM38.6023 29.3134C38.3238 29.3616 37.9079 29.1866 37.8615 29.5776C37.8079 30.0221 38.2845 29.8132 38.5059 29.9346C38.5267 29.9436 38.5494 29.9473 38.5719 29.9453C38.8826 29.9114 39.4038 30.247 39.4341 29.7079C39.4663 29.258 38.9272 29.3651 38.6094 29.3223L38.6023 29.3134ZM27.0901 15.4609C27.0901 15.0146 27.0669 14.7343 27.0901 14.4612C27.1293 14.0756 26.949 13.6615 27.2239 13.3062C27.3435 13.1509 27.5221 13.0099 27.4025 12.7868C27.3767 12.7538 27.3431 12.7278 27.3048 12.7109C27.2665 12.6941 27.2246 12.687 27.1829 12.6903C27.0775 12.7332 26.9881 12.8078 26.927 12.9037C26.8659 12.9997 26.8362 13.1123 26.8419 13.2259C26.8312 13.9132 26.7223 14.6236 27.1008 15.4609H27.0901ZM38.8861 30.8432C39.1378 30.8432 39.411 30.7986 39.3396 30.5522C39.1932 30.047 38.6683 30.2791 38.3256 30.1434C38.1667 30.0792 37.9097 30.1434 37.9561 30.3809C38.0721 30.9289 38.5934 30.7165 38.8933 30.8432H38.8861Z" fill="#4D3626"/>
<path d="M35.5069 33.8458C36.0424 33.9619 36.6065 33.7244 37.1278 33.9886C35.7229 34.1672 35.7264 34.1671 35.6854 35.6274C35.6675 36.2432 35.639 36.8591 35.614 37.475C35.4194 37.957 35.5176 38.4568 35.5301 38.9495C35.4789 40.4109 35.4259 41.8735 35.3712 43.3373C35.3712 43.4462 35.3605 43.5604 35.2355 43.614C35.157 43.7443 35.0784 43.8746 34.9981 44.0031L34.8642 43.8746C34.1652 43.6595 33.4166 43.667 32.7221 43.896C32.7114 44.112 32.6989 44.328 32.6882 44.5458C32.4347 44.3405 32.7471 43.9407 32.4168 43.7622C32.1044 43.5426 32.2044 43.2016 32.1794 42.9071C31.9937 40.6935 31.8152 38.48 31.6439 36.2665C31.6314 36.1147 31.6242 35.9683 31.41 35.9683C31.2303 38.3675 31.0518 40.762 30.8745 43.1516C30.8584 43.3605 30.9477 43.6104 30.696 43.7479L30.3211 43.7604H27.9058C27.8189 43.6769 27.7504 43.5761 27.7049 43.4644C27.6594 43.3528 27.6378 43.2329 27.6416 43.1124C27.5613 40.8756 27.4774 38.6496 27.3649 36.4057C27.3292 35.7274 27.1864 35.0526 27.2418 34.3671C27.2561 34.1725 27.1472 34.0904 26.9883 34.0368C27.1275 33.7709 27.3774 33.8869 27.5774 33.8833C28.7627 33.8673 29.948 33.8655 31.1315 33.8601L35.5069 33.8458ZM29.3607 34.6616C29.0498 34.6822 28.738 34.6822 28.4271 34.6616C27.7827 34.5777 27.6238 34.8294 27.6095 35.4685C27.5613 37.8142 28.0058 40.1348 27.9112 42.4804C27.8755 43.348 27.9969 43.4551 28.852 43.6015C29.9605 43.7943 30.4336 43.4872 30.6157 42.5715C30.6728 42.2787 30.6156 42.011 30.6371 41.7271C30.8156 39.9706 31.0101 38.2104 31.0905 36.4468C31.1708 34.6831 31.1155 34.6616 29.3607 34.6616ZM35.3926 36.229C35.3926 35.8951 35.3694 35.5595 35.3926 35.2275C35.4301 34.7902 35.2587 34.6402 34.8214 34.6545C33.9538 34.6795 33.0862 34.6688 32.2169 34.6545C31.8599 34.6545 31.7528 34.7848 31.8099 35.1418C31.9169 35.7514 31.9902 36.3664 32.0294 36.9841C32.1348 38.9477 32.4293 40.9113 32.4507 42.875C32.4507 43.2641 32.6114 43.4515 33.0452 43.5051C33.5807 43.5729 34.0984 43.4908 34.6232 43.4855C35.0017 43.4855 35.1231 43.2837 35.1141 42.9321C35.0624 40.6953 35.2819 38.4639 35.3926 36.229Z" fill="#2A2A2A"/>
<path d="M31.1162 33.8548C29.9327 33.8548 28.7474 33.8548 27.562 33.878C27.3621 33.878 27.1122 33.7655 26.973 34.0315C26.1993 34.0947 25.421 34.072 24.6523 33.9637C23.5973 33.8298 23.1492 33.2692 23.0743 32.1625C23.0475 31.7465 23.0743 31.3859 22.6619 31.0111C22.3656 30.7379 22.3049 30.0703 22.3602 29.5544C22.4155 29.0385 22.1817 28.3691 22.9761 28.1442C23.0296 28.1299 23.0171 27.8585 23.0243 27.705C23.0564 26.7768 23.0118 25.8414 23.2028 24.9238C23.2742 24.5864 23.2992 24.2205 23.6152 23.9866L23.6401 24.0063L23.7365 24.2312C23.3313 25.2719 23.3385 26.3608 23.3456 27.4444C23.3456 27.855 23.2421 28.337 23.9347 28.2495C24.0882 28.2316 24.1632 28.3727 24.2203 28.4923C24.5363 29.142 24.4274 29.84 24.3988 30.5148C24.3792 30.9522 23.924 31.0503 23.5759 31.1789C23.4971 31.2076 23.4295 31.2607 23.3831 31.3306C22.9814 32.1107 23.7901 33.5513 24.663 33.6031C25.5716 33.6566 26.4803 33.6745 27.3871 33.7352C28.6331 33.8262 29.8791 33.662 31.1162 33.8548ZM23.5313 29.3116C23.1742 29.3545 22.5976 29.3116 22.653 29.8043C22.703 30.2649 23.2385 29.9186 23.5563 29.9614C23.5781 29.965 23.6004 29.965 23.6223 29.9614C23.8472 29.9204 24.1775 29.9864 24.1685 29.6401C24.1596 29.2474 23.8169 29.333 23.5313 29.3116ZM23.201 30.9182C23.4813 30.7701 23.9972 30.9468 24.1257 30.4238C24.1362 30.3849 24.1352 30.3437 24.1227 30.3054C24.1102 30.267 24.0868 30.2332 24.0553 30.208C24.0239 30.1828 23.9857 30.1673 23.9456 30.1634C23.9054 30.1596 23.8651 30.1676 23.8294 30.1863C23.4724 30.3345 22.9154 30.0774 22.7815 30.6523C22.7333 30.8558 22.9457 30.929 23.201 30.9093V30.9182ZM23.0403 29.1331C23.2974 28.9028 23.8794 29.3509 24.0025 28.8047C24.0846 28.4476 23.6758 28.4476 23.4313 28.4673C23.1278 28.4923 22.7173 28.403 22.6476 28.8725C22.6173 29.0831 22.7815 29.1653 23.0403 29.1224V29.1331Z" fill="#4D3626"/>
<path d="M36.6683 45.0992C37.1414 45.9578 36.9111 46.5183 35.9542 46.6522C34.6154 46.8307 33.514 46.2434 32.5001 45.4491C32.2876 45.2848 32.4108 45.0349 32.3555 44.8314L32.3983 44.5458C32.409 44.3673 32.4179 44.1888 32.4286 44.0103V43.7532C32.7589 43.9317 32.4465 44.3316 32.7 44.5369C32.8517 44.6904 32.4572 45.1117 32.9695 45.092C33.1605 45.4312 33.5479 45.5098 33.83 45.7311C33.7621 45.7543 33.6015 45.7936 33.6693 45.8329C34.3012 46.2006 34.96 46.5112 35.724 46.4041C36.1828 46.338 36.5434 46.1702 36.4612 45.6026C36.1524 44.5993 35.333 44.4708 34.5208 44.5012C34.4655 44.0852 35.117 44.5601 34.9814 44.0263L35.0064 43.9942C35.0867 43.8657 35.1652 43.7354 35.2438 43.605C35.0653 43.9085 35.3259 44.037 35.4991 44.1781C35.8757 44.4958 36.2738 44.7957 36.6683 45.0992Z" fill="#4D3626"/>
<path d="M121.922 47.0771C121.697 46.8825 121.793 46.6201 121.793 46.3881C121.793 39.7938 121.793 33.199 121.793 26.6036C121.793 26.3591 121.663 26.0681 121.949 25.8699C121.949 32.7617 121.949 39.654 121.949 46.5469C121.956 46.7237 121.934 46.9004 121.922 47.0771Z" fill="#BA2124"/>
<path d="M26.2891 45.3348C26.3248 45.2491 26.3623 45.1563 26.3997 45.0796L26.4212 45.0581L26.5283 44.9475L26.555 44.9171L26.6622 44.8118L26.6925 44.7886L26.8014 44.6868C27.1816 44.3976 27.6458 44.2049 27.8903 43.755H30.3056C30.3056 43.8425 30.3056 43.9335 30.3056 44.0174C29.6147 44.0353 28.9132 43.9353 28.117 44.0549C28.4044 44.3512 28.7311 44.2156 28.8596 44.5048C28.5258 44.5048 28.2045 44.4905 27.8868 44.5048C27.2209 44.5405 26.6907 45.1724 26.8282 45.7543C26.7443 46.0489 27.062 46.1685 27.1084 46.4059L26.5426 46.4416C26.5343 46.0593 26.448 45.6826 26.2891 45.3348Z" fill="#5E3A19"/>
<path d="M87.8376 47.0324V41.5932C87.8376 41.3593 87.9108 41.0755 87.5234 41.0719C87.9287 41.0237 88.0161 40.8417 87.9929 40.4114C87.9412 39.3672 87.8144 38.3122 88.0875 37.2768L88.0768 40.9809C87.7609 41.1469 87.8983 41.4415 87.8876 41.695C87.8608 43.4694 87.8501 45.2509 87.8376 47.0324Z" fill="#9C3130"/>
<path d="M80.3359 47.4948H85.5949C83.8419 47.7429 82.0836 47.8304 80.3359 47.4948Z" fill="#BA2124"/>
<path d="M142.279 2.80976C141.112 2.97578 139.939 2.86153 138.77 2.87939C137.684 2.89545 136.599 2.86331 135.514 2.8526C135.598 2.70979 135.739 2.73835 135.871 2.73835C137.902 2.73835 139.935 2.73835 141.969 2.73835C142.075 2.74997 142.179 2.77394 142.279 2.80976Z" fill="#9C3130"/>
<path d="M115.123 47.2306L121.885 47.1967C121.821 47.3931 121.653 47.3752 121.501 47.3752C119.484 47.3752 117.467 47.3752 115.45 47.3752C115.328 47.3699 115.175 47.4056 115.123 47.2306Z" fill="#9C3130"/>
<path d="M105.08 47.1985C107.044 47.1985 109.023 47.1984 110.992 47.2538C111.107 47.2538 111.423 46.77 111.464 47.3252C109.441 47.3383 107.417 47.3496 105.394 47.3591C105.276 47.3609 105.126 47.3734 105.08 47.1985Z" fill="#9C3130"/>
<path d="M121.714 13.815L115.121 13.8454C115.166 13.6187 115.351 13.6669 115.494 13.6669C117.429 13.6669 119.366 13.6669 121.303 13.6669C121.446 13.6687 121.614 13.6419 121.714 13.815Z" fill="#BA2124"/>
<path d="M131.025 19.4381C131.025 17.5257 131.025 15.6132 131.025 13.7008C131.045 13.6906 131.066 13.6853 131.088 13.6853C131.11 13.6853 131.131 13.6906 131.15 13.7008C131.15 13.7454 131.161 13.79 131.168 13.8347V19.4167L131.104 19.4364L131.025 19.4381Z" fill="#9C3130"/>
<path d="M148.419 41.1041V46.4166H148.28C148.28 44.8653 148.28 43.3158 148.28 41.7646C148.28 41.5343 148.378 41.2683 148.137 41.0827C148.233 41.0113 148.337 40.9256 148.419 41.1041Z" fill="#C4381A"/>
<path d="M131.162 13.8382C131.162 13.7936 131.15 13.749 131.145 13.7043L135.407 13.6758C135.263 13.9346 135.013 13.8257 134.811 13.8293C133.594 13.8418 132.378 13.8364 131.162 13.8382Z" fill="#BA2124"/>
<path d="M70.4355 13.7007H74.5074L74.6752 13.7293C74.2396 13.9703 73.7701 13.8257 73.3185 13.8364C72.3653 13.8614 71.4102 13.8364 70.4623 13.8364L70.4355 13.7007Z" fill="#BA2124"/>
<path d="M35.5299 38.9495C35.5174 38.4568 35.4193 37.957 35.6138 37.475C35.5853 37.9677 35.5585 38.4586 35.5299 38.9495Z" fill="#394D51"/>
<path d="M142.143 38.7567V19.622H142.205V38.7834L142.143 38.7567Z" fill="#BA2124"/>
<path d="M142.143 13.2563V3.85944H142.205V13.2849L142.143 13.2563Z" fill="#BA2124"/>
<path d="M148.4 13.7561C147.523 13.9346 146.636 13.8115 145.754 13.8293C144.674 13.8647 143.593 13.8223 142.52 13.7026H148.296L148.4 13.7561Z" fill="#BA2124"/>
<path d="M74.6756 13.7204L74.5078 13.6919C74.9666 13.6919 74.8791 13.3634 74.8791 13.0796C74.8791 9.85208 74.8916 6.62638 74.8648 3.40067C74.8648 2.86514 75.0023 2.72411 75.5307 2.73304C77.4229 2.76517 79.3169 2.73304 81.2109 2.75089C81.3609 2.75089 81.5786 2.62057 81.6608 2.88477C79.6775 2.88477 77.6942 2.91512 75.7128 2.86871C75.0594 2.85264 74.9505 3.08827 74.9541 3.66487C74.9773 6.80131 74.9541 9.93776 74.9648 13.0742C74.9648 13.333 75.0505 13.6276 74.6756 13.7204Z" fill="#9C3130"/>
<path d="M81.7109 13.6133C83.5389 13.7382 85.3686 13.6293 87.1984 13.6775C87.4019 13.6775 87.6929 13.499 87.8142 13.8561C85.9827 13.8561 84.153 13.8453 82.3214 13.8275C82.109 13.8239 81.8163 13.9703 81.7109 13.6133Z" fill="#BA2124"/>
<path d="M130.748 14.6433V18.6366C130.482 17.703 130.676 16.7497 130.643 15.8054C130.623 15.4234 130.487 15.0075 130.748 14.6433Z" fill="#BA2124"/>
<path d="M31.1168 33.8547C29.8797 33.6619 28.6337 33.8262 27.3912 33.7423C26.4844 33.6816 25.5758 33.6637 24.6671 33.6102C23.7942 33.5584 22.9855 32.1178 23.3872 31.3377C23.4336 31.2679 23.5012 31.2147 23.58 31.186C23.937 31.0485 24.3833 30.9593 24.4029 30.5219C24.4351 29.8471 24.544 29.1492 24.2244 28.4994C24.1673 28.3798 24.0923 28.2388 23.9388 28.2566C23.2462 28.3423 23.3515 27.8621 23.3497 27.4515C23.3497 26.3608 23.3354 25.2719 23.7407 24.2383C23.896 24.2383 23.9317 24.0759 24.0298 23.9973C24.0516 24.0001 24.0737 23.9982 24.0946 23.9917C24.1155 23.9853 24.1348 23.9744 24.1512 23.9598C24.3637 23.9509 24.5939 23.983 24.7135 23.7385L25.7543 23.7064L34.3228 23.6938C35.4439 23.8188 36.5774 23.6278 37.7038 23.9152C38.2644 24.0598 38.5036 24.3847 38.5732 24.8399C38.7089 25.7325 38.7517 26.6482 38.8534 27.5497C38.9034 27.987 38.7696 28.1977 38.3054 28.2209C37.7699 28.2459 37.4807 28.4583 37.686 29.0724C37.7752 29.342 37.5985 29.6365 37.586 29.9364C37.5539 30.6219 37.8377 30.9896 38.4429 31.1235C38.841 31.211 38.8856 31.4377 38.8284 31.7465C38.7833 32.1433 38.6917 32.5333 38.5553 32.9086C38.4781 33.1164 38.3408 33.2964 38.1609 33.4258C37.9809 33.5552 37.7665 33.6281 37.545 33.6352C36.8648 33.6691 36.1865 33.778 35.5081 33.853L31.1168 33.8547ZM29.1531 28.7011H29.1371C29.1371 29.3438 29.1174 29.9864 29.1371 30.629C29.1585 31.1646 29.4209 31.3431 29.8654 31.0468C30.9008 30.3738 32.0289 29.8561 33.0161 29.1045C33.4303 28.7904 33.3428 28.569 32.9501 28.3762C31.8264 27.8054 30.733 27.1768 29.6744 26.4929C29.2977 26.2555 29.1496 26.3608 29.1389 26.7732C29.146 27.4158 29.1478 28.0585 29.1478 28.7011H29.1531Z" fill="#E52621"/>
<path d="M34.8379 13.483C34.6701 14.638 34.8379 15.6251 35.0164 16.6105C35.0432 16.7515 35.0521 16.9515 35.2217 16.9979C35.3913 17.0443 35.4627 16.8444 35.5538 16.7283C35.7323 16.4945 35.9322 16.2785 36.2678 16.3606C36.6034 16.4427 36.7034 16.7301 36.7926 16.9997C36.9711 17.5513 36.6552 18.542 36.1911 18.8794C36.0518 18.9794 35.8197 19.124 35.7162 19.0722C35.1057 18.7759 35.0789 19.2061 34.9522 19.6077C34.4327 21.2375 33.1474 22.0551 31.2177 21.9694C30.528 21.9359 29.8464 21.8049 29.1934 21.5803C28.0938 21.2108 27.4886 20.4199 27.3958 19.3185C27.2371 17.4322 27.2904 15.5341 27.5547 13.6597C27.6261 13.151 27.7617 12.985 28.3937 12.9992C29.8217 13.0296 31.2713 12.8207 32.694 12.5708C33.178 12.4881 33.6744 12.5174 34.1453 12.6565C34.6451 12.7904 34.92 13.0778 34.8379 13.483ZM35.9215 18.3671C36.3535 17.9868 36.0125 17.4977 36.1714 17.0443C35.5948 17.1514 35.6466 17.5424 35.6359 17.9012C36.2143 17.7726 35.8144 18.2189 35.9161 18.3724L35.9037 18.3867L35.9215 18.3671ZM28.7078 15.502C28.1277 15.6537 27.9599 16.0071 28.133 16.7087C28.133 16.7747 28.1491 16.8408 28.1509 16.9068C28.1777 17.4852 28.4865 17.7512 29.0577 17.7137C29.6289 17.6762 29.8003 17.3567 29.795 16.8212C29.795 16.4784 29.795 16.1071 29.5915 15.8679C29.388 15.6287 29.2719 14.9414 28.7078 15.502ZM32.6958 15.6073C32.0424 15.6073 31.8996 15.8108 31.8854 16.7373C31.8854 17.2585 31.8853 17.7441 32.6137 17.7191C33.267 17.6959 33.6098 17.2621 33.6133 16.4249C33.6205 16.0232 33.1581 15.6109 32.6994 15.6073H32.6958ZM33.1189 18.9597C31.8693 19.8362 30.6625 20.0683 29.3844 19.3953C29.2844 19.3417 29.163 19.2811 29.1113 19.4257C29.0595 19.5703 29.1934 19.6613 29.313 19.7184C30.3841 20.2289 31.4676 20.179 32.5262 19.6827C32.7672 19.572 33.0546 19.4489 33.1224 18.9687L33.1189 18.9597ZM31.5783 18.4367C31.1463 18.5206 30.8643 18.5973 30.559 18.6313C30.3127 18.6598 30.0467 18.642 29.9271 18.3724C29.8075 18.1029 29.9824 17.9458 30.1591 17.8012C30.6947 17.3745 30.6197 16.8158 30.5019 16.2374C30.3412 16.7533 30.3376 17.3299 29.845 17.7048C29.7199 17.7839 29.6283 17.9061 29.5875 18.0482C29.5467 18.1904 29.5596 18.3426 29.6236 18.476C29.6897 18.6057 29.7908 18.7144 29.9154 18.7897C30.04 18.8651 30.1831 18.9042 30.3287 18.9026C30.5594 18.9228 30.7917 18.8912 31.0085 18.81C31.2254 18.7287 31.4213 18.5999 31.5819 18.4331L31.5783 18.4367ZM32.6797 13.8579C32.5798 13.8702 32.4808 13.8893 32.3834 13.915C32.1531 13.9846 31.8479 14.0328 31.9175 14.3541C31.9871 14.6755 32.2745 14.5166 32.4726 14.5148C32.7124 14.499 32.9531 14.5194 33.1867 14.5755C33.3938 14.638 33.5812 15.0628 33.7704 14.7736C33.9596 14.4844 33.5437 14.3095 33.3706 14.1096C33.1974 13.9096 32.9528 13.8989 32.6833 13.8579H32.6797ZM29.2023 14.5505C29.3808 14.5505 29.7057 14.7165 29.7379 14.3434C29.77 13.9703 29.4487 13.9721 29.1845 13.9364C28.6007 13.8543 28.2276 14.1703 27.9135 14.5969C27.851 14.6844 27.7921 14.7986 27.892 14.8932C27.992 14.9879 28.108 14.9254 28.1884 14.8557C28.3201 14.7256 28.4818 14.6298 28.6592 14.5766C28.8365 14.5233 29.0243 14.5144 29.2059 14.5505H29.2023Z" fill="#F2BC81"/>
<path d="M27.9 12.2316C27.7215 12.1602 27.6072 12.5672 27.3859 12.3155C27.2671 12.1963 27.18 12.0492 27.1326 11.8877C27.0852 11.7262 27.079 11.5554 27.1145 11.3908C27.3698 10.2948 28.589 9.6414 29.694 9.90382C30.6151 10.1234 31.5577 10.2466 32.4949 10.3947C33.6248 10.5732 34.9583 10.5732 35.3992 12.037C35.4374 12.1147 35.5002 12.1774 35.5778 12.2156C35.9348 12.4316 36.4418 12.5297 36.4471 13.0331C36.4578 13.8454 36.6256 14.6879 36.2365 15.4627C36.0865 15.7572 35.7009 15.809 35.5224 16.1535C35.4118 16.3606 35.1654 15.9518 35.1511 15.7304C35.1208 15.1092 35.1333 14.4809 35.1333 13.8614C35.1333 12.6386 34.7298 12.228 33.5267 12.228C33.2597 12.2129 32.9921 12.2129 32.7251 12.228C31.2971 12.3905 30.0011 12.0103 28.7818 11.2748C28.7211 11.7086 28.7211 11.7086 29.9832 12.3173C29.5673 12.5262 28.9746 12.4137 28.4123 11.9781C28.0392 11.6871 27.8768 11.7139 27.9178 12.2227L27.9 12.2316Z" fill="#5E3A19"/>
<path d="M29.7793 22.0962C30.538 22.1801 31.2841 22.3496 32.0321 22.2372C32.4449 22.1573 32.8531 22.0554 33.2549 21.9319C33.3602 21.9034 33.4673 21.8319 33.5619 21.9319C33.6566 22.0319 33.6334 22.18 33.5923 22.3068C33.3942 22.9387 32.1642 23.4207 31.0396 23.3136C30.7259 23.2749 30.4333 23.1352 30.2059 22.9156C29.9786 22.696 29.8288 22.4083 29.7793 22.0962Z" fill="#DFB07B"/>
<path d="M32.9922 23.4493C33.2921 23.1012 33.7187 22.8852 33.9472 22.4568C34.0293 22.3033 34.2757 22.3604 34.4471 22.3979C35.3343 22.5656 36.1722 22.9318 36.898 23.469H34.3203L32.9922 23.4493Z" fill="#394D51"/>
<path d="M32.9924 23.4493L34.3205 23.4582C34.3205 23.535 34.3205 23.6117 34.3205 23.6867L25.752 23.6992C25.8037 23.41 26.0162 23.41 26.2072 23.4939C26.3079 23.5406 26.419 23.5605 26.5297 23.5517C26.6404 23.543 26.7469 23.5058 26.8391 23.4439H30.3004L32.9924 23.4493Z" fill="#5E3A19"/>
<path d="M30.3149 23.4493H26.8535C27.2802 22.9405 27.9085 22.8423 28.4905 22.6585C28.6529 22.6067 28.8332 22.6388 28.9885 22.5121C29.2241 22.3157 29.4312 22.3336 29.5401 22.6656C29.6579 23.0494 30.1363 23.1012 30.3149 23.4493Z" fill="#394D51"/>
<path d="M26.9239 18.6795C26.2617 18.0422 26.0742 17.0729 26.4901 16.5766C26.6026 16.4463 26.7312 16.2892 26.9311 16.382C26.966 16.3996 26.9971 16.4239 27.0225 16.4536C27.0479 16.4834 27.0672 16.5178 27.0791 16.555C27.0911 16.5923 27.0955 16.6315 27.0922 16.6704C27.0888 16.7094 27.0778 16.7473 27.0596 16.7819C26.6258 17.2496 27.081 17.7262 27.0114 18.1904C26.9971 18.3332 27.065 18.4903 26.9239 18.6795Z" fill="#DFB07B"/>
<path d="M39.4786 28.5976C39.5446 29.0064 39.4054 29.192 38.9662 29.1063C38.7455 29.0767 38.5231 29.0624 38.3004 29.0635C38.1022 29.0528 37.9434 28.9903 37.9434 28.7582C37.9434 28.6673 37.9795 28.5801 38.0438 28.5159C38.108 28.4516 38.1952 28.4155 38.2861 28.4155C38.6855 28.3636 39.0914 28.4209 39.4607 28.5815L39.4786 28.5976Z" fill="#DFB07B"/>
<path d="M38.6102 29.3223C38.928 29.3741 39.4671 29.267 39.4421 29.7186C39.4117 30.2541 38.8905 29.9221 38.5799 29.956C38.5573 29.958 38.5346 29.9543 38.5138 29.9453C38.2925 29.8221 37.8158 30.031 37.8694 29.5883C37.9158 29.1866 38.3317 29.3616 38.6102 29.3223Z" fill="#DFB07B"/>
<path d="M27.1023 15.4609C26.7274 14.6237 26.8363 13.9132 26.8559 13.217C26.8501 13.1034 26.8798 12.9908 26.9409 12.8948C27.002 12.7988 27.0915 12.7243 27.1969 12.6815C27.2386 12.6782 27.2805 12.6852 27.3188 12.702C27.3571 12.7189 27.3906 12.7449 27.4164 12.7778C27.5378 13.001 27.3593 13.1349 27.2379 13.2973C26.963 13.6543 27.1433 14.0667 27.104 14.4523C27.0755 14.7343 27.1023 15.0146 27.1023 15.4609Z" fill="#5E3A19"/>
<path d="M38.8946 30.8432C38.5947 30.7165 38.0734 30.9361 37.9645 30.3809C37.9181 30.1452 38.1752 30.0792 38.334 30.1434C38.6768 30.2791 39.2016 30.0471 39.348 30.5522C39.4194 30.7986 39.1463 30.8414 38.8946 30.8432Z" fill="#DFB07B"/>
<path d="M24.7166 23.7313C24.597 23.9759 24.3596 23.9438 24.1543 23.9527C24.2453 23.61 24.5042 23.7421 24.7166 23.7313Z" fill="#5E3A19"/>
<path d="M27.9004 12.2316C28.0611 12.2459 28.2574 12.1923 28.3502 12.4423C28.12 12.5154 27.9432 12.5369 27.9004 12.2316Z" fill="#5E3A19"/>
<path d="M24.0321 23.9902C23.9339 24.0687 23.8982 24.2222 23.7429 24.2312L23.6465 24.0062L24.0321 23.9902Z" fill="#5E3A19"/>
<path d="M29.3594 34.6616C31.1142 34.6616 31.1695 34.6616 31.0892 36.4467C31.0089 38.2318 30.8197 39.9705 30.6358 41.7271C30.6055 42.0109 30.6715 42.2787 30.6144 42.5714C30.4359 43.4872 29.9592 43.7942 28.8507 43.6014C27.9956 43.4551 27.8742 43.348 27.9099 42.4804C28.0045 40.1347 27.5529 37.8141 27.6082 35.4685C27.6225 34.8294 27.7868 34.5759 28.4258 34.6616C28.7367 34.6821 29.0486 34.6821 29.3594 34.6616Z" fill="#394D51"/>
<path d="M35.3925 36.2289C35.2818 38.4639 35.0623 40.6917 35.1194 42.9356C35.1194 43.2926 35.0069 43.4854 34.6285 43.489C34.1037 43.489 33.586 43.5765 33.0504 43.5086C32.6166 43.4551 32.4596 43.2676 32.456 42.8785C32.4346 40.9148 32.14 38.9512 32.0347 36.9876C31.9954 36.3699 31.9221 35.7549 31.8151 35.1454C31.758 34.7883 31.8669 34.6545 32.2221 34.658C33.0915 34.658 33.9591 34.6777 34.8266 34.658C35.264 34.6437 35.4353 34.7937 35.3979 35.231C35.3693 35.5595 35.3925 35.8951 35.3925 36.2289Z" fill="#394D51"/>
<path d="M30.6805 43.7479L30.7252 44.419C30.9037 45.217 30.4663 45.6401 29.8112 45.965C28.7687 46.4844 27.7333 46.9843 26.5391 46.4416L27.105 46.4059C27.7288 46.4744 28.3599 46.3848 28.9401 46.1453C29.2185 46.031 29.2489 45.8775 29.1186 45.6419C29.7684 45.2848 30.5467 45.0278 30.2932 44.0228C30.2932 43.9353 30.2932 43.8443 30.2932 43.7603L30.6805 43.7479Z" fill="#4D3626"/>
<path d="M32.7246 43.896C33.4192 43.667 34.1677 43.6595 34.8667 43.8746L34.8543 43.8871C34.4972 43.9246 34.1188 43.7728 33.7832 44.0138H33.5279C33.4964 43.9727 33.4559 43.9394 33.4094 43.9165C33.363 43.8936 33.3119 43.8817 33.2601 43.8817C33.2084 43.8817 33.1573 43.8936 33.1109 43.9165C33.0644 43.9394 33.0239 43.9727 32.9924 44.0138L32.7246 43.896Z" fill="#4D3626"/>
<path d="M32.7253 43.896L32.9734 44.0138C32.9734 44.3708 32.9645 44.7386 32.9609 45.1009C32.4486 45.1206 32.8431 44.6993 32.6914 44.5458C32.7021 44.328 32.7146 44.112 32.7253 43.896Z" fill="#882B17"/>
<path d="M34.8628 43.8746L34.9967 44.0031L34.9717 44.0352C34.9327 44.0314 34.8944 44.023 34.8574 44.0102C34.8574 43.9692 34.8574 43.9281 34.8574 43.8871L34.8628 43.8746Z" fill="#4D3626"/>
<path d="M26.2887 45.3348C26.4476 45.6839 26.5332 46.0618 26.5404 46.4452C26.0013 46.1774 26.0299 45.7829 26.2887 45.3348Z" fill="#4D3626"/>
<path d="M23.5304 29.3116C23.8161 29.333 24.1588 29.2473 24.1677 29.6365C24.1677 29.9828 23.8464 29.9168 23.6215 29.9578C23.5996 29.9614 23.5773 29.9614 23.5554 29.9578C23.2377 29.915 22.7021 30.2613 22.6521 29.8007C22.5968 29.3045 23.1734 29.3544 23.5304 29.3116Z" fill="#DFB07B"/>
<path d="M23.2018 30.9093C22.9465 30.9236 22.7341 30.8558 22.7823 30.6433C22.9161 30.0685 23.4749 30.3256 23.8301 30.1774C23.8658 30.1586 23.9062 30.1507 23.9463 30.1545C23.9864 30.1583 24.0246 30.1738 24.0561 30.199C24.0875 30.2242 24.1109 30.2581 24.1234 30.2964C24.136 30.3348 24.137 30.3759 24.1264 30.4148C23.9979 30.9379 23.482 30.7611 23.2018 30.9093Z" fill="#DFB07B"/>
<path d="M23.0408 29.1224C22.782 29.1652 22.6178 29.0831 22.6481 28.8618C22.7142 28.3923 23.1283 28.4815 23.4318 28.4565C23.6763 28.4351 24.0851 28.4315 24.003 28.7939C23.8888 29.3402 23.2979 28.8921 23.0408 29.1224Z" fill="#DFB07B"/>
<path d="M34.8585 44.0103C34.8955 44.023 34.9338 44.0314 34.9728 44.0352C35.1084 44.5708 34.4569 44.0941 34.5122 44.5101C35.3244 44.4797 36.1438 44.6083 36.4526 45.6115C35.5958 46.0471 34.7086 45.8882 33.8214 45.74C33.5393 45.5187 33.1519 45.4401 32.9609 45.101C32.9609 44.7439 32.9609 44.3762 32.9734 44.0138H33.509H33.7714L34.8585 44.0103Z" fill="#C4381A"/>
<path d="M33.8216 45.7454C34.7141 45.8936 35.596 46.0525 36.4528 45.6169C36.5349 46.1845 36.1743 46.3523 35.7156 46.4184C34.9515 46.5255 34.2875 46.2149 33.6609 45.8471C33.5931 45.8025 33.7537 45.7633 33.8216 45.7454Z" fill="#882B17"/>
<path d="M30.302 44.0227C30.5537 45.0278 29.7772 45.2884 29.1274 45.6418C28.3651 45.7864 27.61 46.0703 26.8246 45.7543C26.6871 45.1795 27.2173 44.5476 27.8832 44.5047C28.2009 44.4887 28.5222 44.5047 28.856 44.5047C28.7275 44.2155 28.4009 44.3512 28.1134 44.0549C28.9096 43.9406 29.6112 44.0406 30.302 44.0227Z" fill="#C4381A"/>
<path d="M26.8256 45.7543C27.611 46.0703 28.3661 45.7864 29.1284 45.6418C29.2498 45.8775 29.2194 46.031 28.9499 46.1452C28.3697 46.3848 27.7386 46.4744 27.1148 46.4059C27.0594 46.1684 26.7452 46.0489 26.8256 45.7543Z" fill="#882B17"/>
<path d="M29.1477 28.7011C29.1477 28.0585 29.1477 27.4158 29.1477 26.7732C29.1477 26.3608 29.2976 26.2555 29.6832 26.4929C30.7419 27.1768 31.8352 27.8054 32.9589 28.3762C33.3516 28.5672 33.4391 28.7904 33.0249 29.1045C32.0378 29.8561 30.9096 30.3738 29.8742 31.0468C29.4297 31.3377 29.1602 31.1663 29.1459 30.629C29.1209 29.9864 29.1459 29.3437 29.1459 28.7011H29.1477Z" fill="#FAE2BE"/>
<path d="M32.7002 15.6073C33.159 15.6073 33.6214 16.0232 33.6178 16.4249C33.6178 17.2621 33.2715 17.6959 32.6181 17.7191C31.888 17.7441 31.8826 17.2585 31.8898 16.7373C31.9041 15.8108 32.0469 15.6037 32.7002 15.6073ZM32.6806 16.1678C32.3396 16.2374 32.3129 16.5016 32.3075 16.7694C32.3022 17.0372 32.3075 17.362 32.6449 17.3817C33.0234 17.4031 33.0769 17.0479 33.0751 16.7712C33.0733 16.4945 33.0091 16.241 32.6806 16.1678Z" fill="#FAE2BE"/>
<path d="M28.7077 15.502C29.2682 14.9414 29.3985 15.6376 29.6002 15.859C29.8019 16.0803 29.8002 16.4695 29.8037 16.8123C29.8037 17.3478 29.6252 17.6691 29.0665 17.7048C28.5077 17.7405 28.1864 17.4763 28.1597 16.8979C28.1597 16.8319 28.1489 16.7658 28.1418 16.6998C28.0989 16.1982 28.5095 15.9 28.7077 15.502ZM29.5038 16.6784C29.4913 16.4767 29.5324 16.1428 29.1664 16.1428C28.8005 16.1428 28.7737 16.4999 28.7791 16.7855C28.7844 17.0711 28.7791 17.4388 29.1736 17.4103C29.5681 17.3817 29.4949 17.005 29.5074 16.6784H29.5038Z" fill="#FAE2BE"/>
<path d="M33.1231 18.9686C33.0553 19.4577 32.7661 19.5809 32.5323 19.6827C31.4719 20.1789 30.3901 20.2289 29.3191 19.7184C29.1995 19.6612 29.0584 19.5881 29.1173 19.4256C29.1763 19.2632 29.2958 19.3417 29.3905 19.3953C30.6722 20.0683 31.8646 19.8362 33.1231 18.9686Z" fill="#5E3A19"/>
<path d="M31.5825 18.4331C31.422 18.5988 31.2265 18.7266 31.0104 18.8072C30.7942 18.8878 30.5628 18.9192 30.333 18.8991C30.1874 18.9007 30.0442 18.8616 29.9196 18.7862C29.795 18.7108 29.694 18.6021 29.6278 18.4724C29.5638 18.3391 29.551 18.1869 29.5918 18.0447C29.6326 17.9025 29.7242 17.7803 29.8492 17.7012C30.3419 17.3264 30.3454 16.7498 30.5061 16.2339C30.6239 16.8123 30.6846 17.371 30.1634 17.7976C29.9849 17.9422 29.8224 18.1207 29.9313 18.3689C30.0402 18.617 30.3169 18.6563 30.5632 18.6277C30.8596 18.5974 31.1505 18.5206 31.5825 18.4331Z" fill="#5E3A19"/>
<path d="M32.6837 13.8578C32.9532 13.8989 33.2192 13.9221 33.3799 14.1096C33.5405 14.297 33.9654 14.4916 33.7798 14.7736C33.5941 15.0557 33.4031 14.6379 33.196 14.5755C32.9624 14.5194 32.7217 14.499 32.482 14.5148C32.2802 14.5148 31.9911 14.6647 31.9268 14.3541C31.8625 14.0435 32.1624 13.9846 32.3927 13.915C32.4883 13.8895 32.5855 13.8705 32.6837 13.8578Z" fill="#4D3626"/>
<path d="M29.2054 14.5505C29.0257 14.5165 28.8404 14.5266 28.6654 14.5797C28.4904 14.6329 28.3309 14.7276 28.2004 14.8558C28.1201 14.9254 28.0058 14.9879 27.9041 14.8933C27.8023 14.7986 27.863 14.6844 27.9255 14.5969C28.2397 14.1703 28.6128 13.8543 29.1965 13.9364C29.4607 13.9721 29.7874 13.9793 29.7499 14.3434C29.7124 14.7076 29.3893 14.5452 29.2054 14.5505Z" fill="#4D3626"/>
<path d="M35.9218 18.3724C35.8218 18.2189 36.2199 17.7726 35.6415 17.9012C35.6415 17.5442 35.5951 17.1514 36.177 17.0443C36.0182 17.4977 36.3555 17.9869 35.9271 18.3671L35.9218 18.3724Z" fill="#5E3A19"/>
<path d="M28.708 15.502C28.5062 15.9 28.0957 16.1982 28.1332 16.7087C27.9636 16.0071 28.1314 15.6537 28.708 15.502Z" fill="#394D51"/>
<path d="M35.9227 18.3688L35.9102 18.3867L35.9227 18.3724V18.3688Z" fill="#5E3A19"/>
<path d="M34.8582 44.0103H33.7871C34.1209 43.7693 34.5012 43.921 34.8582 43.8835C34.8554 43.9257 34.8554 43.9681 34.8582 44.0103Z" fill="#882B17"/>
<path d="M33.5277 44.0121H32.9922C33.0237 43.971 33.0642 43.9377 33.1107 43.9148C33.1571 43.8919 33.2082 43.8799 33.26 43.8799C33.3117 43.8799 33.3628 43.8919 33.4092 43.9148C33.4557 43.9377 33.4962 43.971 33.5277 44.0121Z" fill="#882B17"/>
<path d="M32.6802 16.1678C33.0087 16.241 33.0711 16.5248 33.0747 16.7711C33.0783 17.0175 33.023 17.4031 32.6445 17.3817C32.3107 17.362 32.3036 17.0354 32.3071 16.7694C32.3107 16.5034 32.3393 16.2374 32.6802 16.1678Z" fill="#4D3626"/>
<path d="M29.5089 16.6784C29.4964 17.0122 29.5696 17.3835 29.1786 17.4085C28.7877 17.4335 28.7895 17.0515 28.7841 16.7837C28.7788 16.5159 28.7841 16.1464 29.1715 16.1411C29.5588 16.1357 29.4964 16.4695 29.5089 16.6784Z" fill="#4D3626"/>
</g>
<defs>
<clipPath id="clip0_15756_514">
<rect width="148.513" height="48" fill="white"/>
</clipPath>
</defs>
</svg>
